<svg xmlns="http://www.w3.org/2000/svg" xmlns:xlink="http://www.w3.org/1999/xlink" width="500" zoomAndPan="magnify" viewBox="0 0 375 374.999991" height="500" preserveAspectRatio="xMidYMid meet" version="1.0"><defs><g/><clipPath id="79f0a7bbb9"><path d="M 4.742188 152 L 80.492188 152 L 80.492188 223.902344 L 4.742188 223.902344 Z M 4.742188 152 " clip-rule="nonzero"/></clipPath><clipPath id="687c4bf19a"><path d="M 30.136719 210.566406 C 25.695312 210.0625 21.65625 208.472656 18.296875 205.859375 L 18.367188 205.777344 C 20.074219 206.066406 21.816406 206.203125 23.566406 206.203125 C 26.621094 206.203125 29.71875 205.777344 32.773438 204.960938 C 35.257812 204.296875 37.710938 203.375 40.097656 202.207031 C 45.417969 199.605469 50.382812 195.804688 54.507812 190.984375 C 59.390625 185.277344 61.496094 180.007812 60.949219 174.867188 C 60.867188 174.109375 60.726562 173.359375 60.527344 172.605469 C 67.945312 180.265625 69.976562 186.839844 61.394531 196.875 C 55.382812 203.890625 47.445312 208.625 39.035156 210.191406 C 39.03125 210.191406 39.023438 210.191406 39.019531 210.195312 C 37.703125 210.441406 36.410156 210.601562 35.132812 210.679688 C 33.421875 210.789062 31.753906 210.75 30.136719 210.566406 Z M 35.011719 200.203125 C 41.117188 197.933594 46.917969 193.90625 51.570312 188.464844 C 55.539062 183.835938 57.203125 179.960938 57.203125 176.4375 C 57.203125 172.730469 55.351562 169.414062 52.398438 166.015625 L 49.496094 169.40625 L 49.492188 169.40625 L 49.492188 169.410156 L 49.488281 169.417969 L 38.84375 181.851562 L 37.546875 183.367188 L 27.71875 194.851562 L 21.378906 202.257812 L 21.382812 202.257812 C 25.867188 202.609375 30.519531 201.882812 35.011719 200.203125 Z M 80.589844 158.996094 L 75.535156 162.304688 C 75.34375 162.953125 75.058594 163.589844 74.671875 164.210938 C 72.199219 168.183594 66.550781 169.734375 62.058594 167.671875 C 57.5625 165.609375 55.929688 160.714844 58.40625 156.742188 C 60.882812 152.769531 66.53125 151.21875 71.023438 153.285156 C 72.921875 154.15625 74.308594 155.53125 75.09375 157.132812 L 75.09375 157.136719 Z M 67.039062 156.59375 C 66.140625 155.820312 64.78125 155.921875 64.015625 156.828125 C 63.242188 157.726562 63.347656 159.082031 64.25 159.855469 C 65.148438 160.625 66.507812 160.519531 67.277344 159.617188 C 68.046875 158.71875 67.941406 157.359375 67.039062 156.59375 Z M 4.742188 221.691406 C 7.035156 223.117188 9.710938 223.777344 12.449219 223.566406 C 15.847656 223.296875 18.933594 221.730469 21.144531 219.148438 L 25.804688 213.703125 C 22.121094 212.769531 18.730469 211.125 15.78125 208.792969 Z M 41.832031 219.769531 L 40.113281 213.917969 C 39.988281 213.945312 39.863281 213.96875 39.742188 213.992188 C 38.566406 214.210938 37.398438 214.375 36.246094 214.476562 L 37.800781 219.769531 L 29.171875 219.769531 L 29.171875 223.636719 L 69.140625 223.636719 L 69.140625 219.769531 Z M 41.832031 219.769531 " clip-rule="nonzero"/></clipPath><linearGradient x1="0.000000393198" gradientTransform="matrix(0.260314, 0, 0, 0.260314, 4.743484, 152.369516)" y1="136.884995" x2="290.994822" gradientUnits="userSpaceOnUse" y2="136.884995" id="8f16e16934"><stop stop-opacity="1" stop-color="rgb(90.59906%, 83.099365%, 61.999512%)" offset="0"/><stop stop-opacity="1" stop-color="rgb(90.635681%, 83.06427%, 61.8927%)" offset="0.0078125"/><stop stop-opacity="1" stop-color="rgb(90.708923%, 82.99408%, 61.682129%)" offset="0.015625"/><stop stop-opacity="1" stop-color="rgb(90.782166%, 82.923889%, 61.470032%)" offset="0.0234375"/><stop stop-opacity="1" stop-color="rgb(90.855408%, 82.853699%, 61.25946%)" offset="0.03125"/><stop stop-opacity="1" stop-color="rgb(90.92865%, 82.783508%, 61.047363%)" offset="0.0390625"/><stop stop-opacity="1" stop-color="rgb(91.001892%, 82.713318%, 60.835266%)" offset="0.046875"/><stop stop-opacity="1" stop-color="rgb(91.07666%, 82.643127%, 60.624695%)" offset="0.0546875"/><stop stop-opacity="1" stop-color="rgb(91.149902%, 82.572937%, 60.412598%)" offset="0.0625"/><stop stop-opacity="1" stop-color="rgb(91.223145%, 82.502747%, 60.202026%)" offset="0.0703125"/><stop stop-opacity="1" stop-color="rgb(91.296387%, 82.432556%, 59.989929%)" offset="0.078125"/><stop stop-opacity="1" stop-color="rgb(91.369629%, 82.362366%, 59.777832%)" offset="0.0859375"/><stop stop-opacity="1" stop-color="rgb(91.442871%, 82.292175%, 59.567261%)" offset="0.09375"/><stop stop-opacity="1" stop-color="rgb(91.516113%, 82.221985%, 59.355164%)" offset="0.101563"/><stop stop-opacity="1" stop-color="rgb(91.589355%, 82.151794%, 59.144592%)" offset="0.109375"/><stop stop-opacity="1" stop-color="rgb(91.662598%, 82.081604%, 58.932495%)" offset="0.117188"/><stop stop-opacity="1" stop-color="rgb(91.73584%, 82.011414%, 58.721924%)" offset="0.125"/><stop stop-opacity="1" stop-color="rgb(91.809082%, 81.941223%, 58.509827%)" offset="0.132812"/><stop stop-opacity="1" stop-color="rgb(91.882324%, 81.871033%, 58.297729%)" offset="0.140625"/><stop stop-opacity="1" stop-color="rgb(91.955566%, 81.799316%, 58.087158%)" offset="0.148438"/><stop stop-opacity="1" stop-color="rgb(92.028809%, 81.729126%, 57.875061%)" offset="0.15625"/><stop stop-opacity="1" stop-color="rgb(92.102051%, 81.658936%, 57.66449%)" offset="0.164063"/><stop stop-opacity="1" stop-color="rgb(92.176819%, 81.588745%, 57.452393%)" offset="0.171875"/><stop stop-opacity="1" stop-color="rgb(92.250061%, 81.518555%, 57.241821%)" offset="0.179688"/><stop stop-opacity="1" stop-color="rgb(92.323303%, 81.448364%, 57.029724%)" offset="0.1875"/><stop stop-opacity="1" stop-color="rgb(92.396545%, 81.378174%, 56.817627%)" offset="0.195313"/><stop stop-opacity="1" stop-color="rgb(92.469788%, 81.307983%, 56.607056%)" offset="0.203125"/><stop stop-opacity="1" stop-color="rgb(92.54303%, 81.237793%, 56.394958%)" offset="0.210938"/><stop stop-opacity="1" stop-color="rgb(92.616272%, 81.167603%, 56.184387%)" offset="0.21875"/><stop stop-opacity="1" stop-color="rgb(92.689514%, 81.097412%, 55.97229%)" offset="0.226562"/><stop stop-opacity="1" stop-color="rgb(92.762756%, 81.027222%, 55.761719%)" offset="0.234375"/><stop stop-opacity="1" stop-color="rgb(92.835999%, 80.957031%, 55.549622%)" offset="0.242188"/><stop stop-opacity="1" stop-color="rgb(92.909241%, 80.886841%, 55.337524%)" offset="0.25"/><stop stop-opacity="1" stop-color="rgb(92.982483%, 80.81665%, 55.126953%)" offset="0.257813"/><stop stop-opacity="1" stop-color="rgb(93.055725%, 80.74646%, 54.914856%)" offset="0.265625"/><stop stop-opacity="1" stop-color="rgb(93.128967%, 80.67627%, 54.704285%)" offset="0.273438"/><stop stop-opacity="1" stop-color="rgb(93.202209%, 80.606079%, 54.492188%)" offset="0.28125"/><stop stop-opacity="1" stop-color="rgb(93.276978%, 80.535889%, 54.28009%)" offset="0.289062"/><stop stop-opacity="1" stop-color="rgb(93.35022%, 80.465698%, 54.069519%)" offset="0.296875"/><stop stop-opacity="1" stop-color="rgb(93.423462%, 80.395508%, 53.857422%)" offset="0.304688"/><stop stop-opacity="1" stop-color="rgb(93.496704%, 80.325317%, 53.646851%)" offset="0.3125"/><stop stop-opacity="1" stop-color="rgb(93.569946%, 80.255127%, 53.434753%)" offset="0.320312"/><stop stop-opacity="1" stop-color="rgb(93.643188%, 80.184937%, 53.224182%)" offset="0.328125"/><stop stop-opacity="1" stop-color="rgb(93.716431%, 80.114746%, 53.012085%)" offset="0.335938"/><stop stop-opacity="1" stop-color="rgb(93.789673%, 80.044556%, 52.799988%)" offset="0.34375"/><stop stop-opacity="1" stop-color="rgb(93.862915%, 79.974365%, 52.589417%)" offset="0.351562"/><stop stop-opacity="1" stop-color="rgb(93.936157%, 79.904175%, 52.377319%)" offset="0.359375"/><stop stop-opacity="1" stop-color="rgb(94.009399%, 79.833984%, 52.166748%)" offset="0.367188"/><stop stop-opacity="1" stop-color="rgb(94.082642%, 79.763794%, 51.954651%)" offset="0.375"/><stop stop-opacity="1" stop-color="rgb(94.155884%, 79.693604%, 51.74408%)" offset="0.382812"/><stop stop-opacity="1" stop-color="rgb(94.229126%, 79.623413%, 51.531982%)" offset="0.390625"/><stop stop-opacity="1" stop-color="rgb(94.302368%, 79.553223%, 51.319885%)" offset="0.398438"/><stop stop-opacity="1" stop-color="rgb(94.377136%, 79.483032%, 51.109314%)" offset="0.40625"/><stop stop-opacity="1" stop-color="rgb(94.450378%, 79.412842%, 50.897217%)" offset="0.414062"/><stop stop-opacity="1" stop-color="rgb(94.523621%, 79.342651%, 50.686646%)" offset="0.421875"/><stop stop-opacity="1" stop-color="rgb(94.596863%, 79.272461%, 50.474548%)" offset="0.429688"/><stop stop-opacity="1" stop-color="rgb(94.670105%, 79.202271%, 50.262451%)" offset="0.4375"/><stop stop-opacity="1" stop-color="rgb(94.743347%, 79.13208%, 50.05188%)" offset="0.445313"/><stop stop-opacity="1" stop-color="rgb(94.816589%, 79.06189%, 49.839783%)" offset="0.453125"/><stop stop-opacity="1" stop-color="rgb(94.889832%, 78.991699%, 49.629211%)" offset="0.460938"/><stop stop-opacity="1" stop-color="rgb(94.963074%, 78.921509%, 49.417114%)" offset="0.46875"/><stop stop-opacity="1" stop-color="rgb(95.036316%, 78.851318%, 49.206543%)" offset="0.476562"/><stop stop-opacity="1" stop-color="rgb(95.109558%, 78.781128%, 48.994446%)" offset="0.484375"/><stop stop-opacity="1" stop-color="rgb(95.1828%, 78.710938%, 48.782349%)" offset="0.492188"/><stop stop-opacity="1" stop-color="rgb(95.256042%, 78.640747%, 48.571777%)" offset="0.5"/><stop stop-opacity="1" stop-color="rgb(95.329285%, 78.569031%, 48.35968%)" offset="0.507812"/><stop stop-opacity="1" stop-color="rgb(95.402527%, 78.49884%, 48.149109%)" offset="0.515625"/><stop stop-opacity="1" stop-color="rgb(95.477295%, 78.42865%, 47.937012%)" offset="0.523438"/><stop stop-opacity="1" stop-color="rgb(95.550537%, 78.358459%, 47.72644%)" offset="0.53125"/><stop stop-opacity="1" stop-color="rgb(95.623779%, 78.288269%, 47.514343%)" offset="0.539062"/><stop stop-opacity="1" stop-color="rgb(95.697021%, 78.218079%, 47.302246%)" offset="0.546875"/><stop stop-opacity="1" stop-color="rgb(95.770264%, 78.147888%, 47.091675%)" offset="0.554688"/><stop stop-opacity="1" stop-color="rgb(95.843506%, 78.077698%, 46.879578%)" offset="0.5625"/><stop stop-opacity="1" stop-color="rgb(95.916748%, 78.007507%, 46.669006%)" offset="0.570312"/><stop stop-opacity="1" stop-color="rgb(95.98999%, 77.937317%, 46.456909%)" offset="0.578125"/><stop stop-opacity="1" stop-color="rgb(96.063232%, 77.867126%, 46.246338%)" offset="0.585938"/><stop stop-opacity="1" stop-color="rgb(96.136475%, 77.796936%, 46.034241%)" offset="0.59375"/><stop stop-opacity="1" stop-color="rgb(96.209717%, 77.726746%, 45.822144%)" offset="0.601562"/><stop stop-opacity="1" stop-color="rgb(96.282959%, 77.656555%, 45.611572%)" offset="0.609375"/><stop stop-opacity="1" stop-color="rgb(96.356201%, 77.586365%, 45.399475%)" offset="0.617188"/><stop stop-opacity="1" stop-color="rgb(96.429443%, 77.516174%, 45.188904%)" offset="0.625"/><stop stop-opacity="1" stop-color="rgb(96.504211%, 77.445984%, 44.976807%)" offset="0.632812"/><stop stop-opacity="1" stop-color="rgb(96.577454%, 77.375793%, 44.764709%)" offset="0.640625"/><stop stop-opacity="1" stop-color="rgb(96.650696%, 77.305603%, 44.554138%)" offset="0.648438"/><stop stop-opacity="1" stop-color="rgb(96.723938%, 77.235413%, 44.342041%)" offset="0.65625"/><stop stop-opacity="1" stop-color="rgb(96.79718%, 77.165222%, 44.13147%)" offset="0.664062"/><stop stop-opacity="1" stop-color="rgb(96.870422%, 77.095032%, 43.919373%)" offset="0.671875"/><stop stop-opacity="1" stop-color="rgb(96.943665%, 77.024841%, 43.708801%)" offset="0.679687"/><stop stop-opacity="1" stop-color="rgb(97.016907%, 76.954651%, 43.496704%)" offset="0.6875"/><stop stop-opacity="1" stop-color="rgb(97.090149%, 76.88446%, 43.284607%)" offset="0.695312"/><stop stop-opacity="1" stop-color="rgb(97.163391%, 76.81427%, 43.074036%)" offset="0.703125"/><stop stop-opacity="1" stop-color="rgb(97.236633%, 76.74408%, 42.861938%)" offset="0.710938"/><stop stop-opacity="1" stop-color="rgb(97.309875%, 76.673889%, 42.651367%)" offset="0.71875"/><stop stop-opacity="1" stop-color="rgb(97.383118%, 76.603699%, 42.43927%)" offset="0.726562"/><stop stop-opacity="1" stop-color="rgb(97.45636%, 76.533508%, 42.228699%)" offset="0.734375"/><stop stop-opacity="1" stop-color="rgb(97.529602%, 76.463318%, 42.016602%)" offset="0.742188"/><stop stop-opacity="1" stop-color="rgb(97.60437%, 76.393127%, 41.804504%)" offset="0.75"/><stop stop-opacity="1" stop-color="rgb(97.677612%, 76.322937%, 41.593933%)" offset="0.757812"/><stop stop-opacity="1" stop-color="rgb(97.750854%, 76.252747%, 41.381836%)" offset="0.765625"/><stop stop-opacity="1" stop-color="rgb(97.824097%, 76.182556%, 41.171265%)" offset="0.773438"/><stop stop-opacity="1" stop-color="rgb(97.897339%, 76.112366%, 40.959167%)" offset="0.78125"/><stop stop-opacity="1" stop-color="rgb(97.970581%, 76.042175%, 40.748596%)" offset="0.789062"/><stop stop-opacity="1" stop-color="rgb(98.043823%, 75.971985%, 40.536499%)" offset="0.796875"/><stop stop-opacity="1" stop-color="rgb(98.117065%, 75.901794%, 40.324402%)" offset="0.804688"/><stop stop-opacity="1" stop-color="rgb(98.190308%, 75.831604%, 40.113831%)" offset="0.8125"/><stop stop-opacity="1" stop-color="rgb(98.26355%, 75.761414%, 39.901733%)" offset="0.820312"/><stop stop-opacity="1" stop-color="rgb(98.336792%, 75.691223%, 39.691162%)" offset="0.828125"/><stop stop-opacity="1" stop-color="rgb(98.410034%, 75.621033%, 39.479065%)" offset="0.835938"/><stop stop-opacity="1" stop-color="rgb(98.483276%, 75.550842%, 39.266968%)" offset="0.84375"/><stop stop-opacity="1" stop-color="rgb(98.556519%, 75.480652%, 39.056396%)" offset="0.851562"/><stop stop-opacity="1" stop-color="rgb(98.629761%, 75.410461%, 38.844299%)" offset="0.859375"/><stop stop-opacity="1" stop-color="rgb(98.704529%, 75.338745%, 38.633728%)" offset="0.867188"/><stop stop-opacity="1" stop-color="rgb(98.777771%, 75.268555%, 38.421631%)" offset="0.875"/><stop stop-opacity="1" stop-color="rgb(98.851013%, 75.198364%, 38.21106%)" offset="0.882812"/><stop stop-opacity="1" stop-color="rgb(98.924255%, 75.128174%, 37.998962%)" offset="0.890625"/><stop stop-opacity="1" stop-color="rgb(98.997498%, 75.057983%, 37.786865%)" offset="0.898438"/><stop stop-opacity="1" stop-color="rgb(99.07074%, 74.987793%, 37.576294%)" offset="0.90625"/><stop stop-opacity="1" stop-color="rgb(99.143982%, 74.917603%, 37.364197%)" offset="0.914062"/><stop stop-opacity="1" stop-color="rgb(99.217224%, 74.847412%, 37.153625%)" offset="0.921875"/><stop stop-opacity="1" stop-color="rgb(99.290466%, 74.777222%, 36.941528%)" offset="0.929688"/><stop stop-opacity="1" stop-color="rgb(99.363708%, 74.707031%, 36.730957%)" offset="0.9375"/><stop stop-opacity="1" stop-color="rgb(99.436951%, 74.636841%, 36.51886%)" offset="0.945312"/><stop stop-opacity="1" stop-color="rgb(99.510193%, 74.56665%, 36.306763%)" offset="0.953125"/><stop stop-opacity="1" stop-color="rgb(99.583435%, 74.49646%, 36.096191%)" offset="0.960938"/><stop stop-opacity="1" stop-color="rgb(99.656677%, 74.42627%, 35.884094%)" offset="0.96875"/><stop stop-opacity="1" stop-color="rgb(99.729919%, 74.356079%, 35.673523%)" offset="0.976562"/><stop stop-opacity="1" stop-color="rgb(99.804688%, 74.285889%, 35.461426%)" offset="0.984375"/><stop stop-opacity="1" stop-color="rgb(99.87793%, 74.215698%, 35.250854%)" offset="0.992188"/><stop stop-opacity="1" stop-color="rgb(99.951172%, 74.145508%, 35.038757%)" offset="1"/></linearGradient></defs><g fill="#ffffff" fill-opacity="1"><g transform="translate(118.234434, 160.549713)"><g><path d="M 22.453125 -0.390625 L 22.640625 -0.390625 C 22.816406 -0.390625 22.984375 -0.460938 23.140625 -0.609375 C 23.296875 -0.765625 23.429688 -0.945312 23.546875 -1.15625 C 23.660156 -1.363281 23.742188 -1.585938 23.796875 -1.828125 C 23.847656 -2.066406 23.875 -2.289062 23.875 -2.5 L 23.875 -22.75 L 13.9375 0.421875 L 4.5 -21.5625 L 4.5 -2.5 C 4.5 -2.289062 4.523438 -2.066406 4.578125 -1.828125 C 4.628906 -1.585938 4.710938 -1.363281 4.828125 -1.15625 C 4.941406 -0.945312 5.078125 -0.765625 5.234375 -0.609375 C 5.390625 -0.460938 5.570312 -0.390625 5.78125 -0.390625 L 5.96875 -0.390625 L 5.96875 0 L 1.765625 0 L 1.765625 -0.390625 L 1.96875 -0.390625 C 2.144531 -0.390625 2.304688 -0.460938 2.453125 -0.609375 C 2.609375 -0.765625 2.738281 -0.945312 2.84375 -1.15625 C 2.945312 -1.363281 3.023438 -1.585938 3.078125 -1.828125 C 3.128906 -2.066406 3.15625 -2.289062 3.15625 -2.5 L 3.15625 -23.015625 C 3.15625 -23.203125 3.128906 -23.410156 3.078125 -23.640625 C 3.023438 -23.867188 2.945312 -24.082031 2.84375 -24.28125 C 2.738281 -24.488281 2.609375 -24.664062 2.453125 -24.8125 C 2.304688 -24.957031 2.144531 -25.03125 1.96875 -25.03125 L 1.765625 -25.03125 L 1.765625 -25.40625 L 5.703125 -25.40625 L 14.625 -4.34375 L 23.5625 -25.40625 L 27.90625 -25.40625 L 27.90625 -25.03125 L 27.71875 -25.03125 C 27.507812 -25.03125 27.328125 -24.957031 27.171875 -24.8125 C 27.023438 -24.664062 26.894531 -24.488281 26.78125 -24.28125 C 26.664062 -24.082031 26.582031 -23.867188 26.53125 -23.640625 C 26.476562 -23.410156 26.453125 -23.203125 26.453125 -23.015625 L 26.453125 -2.5 C 26.453125 -2.289062 26.476562 -2.066406 26.53125 -1.828125 C 26.582031 -1.585938 26.664062 -1.363281 26.78125 -1.15625 C 26.894531 -0.945312 27.023438 -0.765625 27.171875 -0.609375 C 27.328125 -0.460938 27.507812 -0.390625 27.71875 -0.390625 L 27.90625 -0.390625 L 27.90625 0 L 22.453125 0 Z M 22.453125 -0.390625 "/></g></g></g><g fill="#ffffff" fill-opacity="1"><g transform="translate(147.379143, 160.549713)"><g><path d="M 1.890625 -25.40625 L 7.390625 -25.40625 L 7.390625 -25.03125 L 7.203125 -25.03125 C 7.023438 -25.03125 6.859375 -24.957031 6.703125 -24.8125 C 6.546875 -24.664062 6.414062 -24.5 6.3125 -24.3125 C 6.207031 -24.125 6.125 -23.90625 6.0625 -23.65625 C 6 -23.414062 5.96875 -23.203125 5.96875 -23.015625 L 5.96875 -2.5 C 5.96875 -2.289062 5.992188 -2.066406 6.046875 -1.828125 C 6.097656 -1.585938 6.179688 -1.363281 6.296875 -1.15625 C 6.410156 -0.945312 6.535156 -0.765625 6.671875 -0.609375 C 6.816406 -0.460938 6.992188 -0.390625 7.203125 -0.390625 L 7.390625 -0.390625 L 7.390625 0 L 1.890625 0 L 1.890625 -0.390625 L 2.078125 -0.390625 C 2.285156 -0.390625 2.460938 -0.457031 2.609375 -0.59375 C 2.765625 -0.738281 2.898438 -0.921875 3.015625 -1.140625 C 3.140625 -1.359375 3.222656 -1.585938 3.265625 -1.828125 C 3.316406 -2.066406 3.34375 -2.289062 3.34375 -2.5 L 3.34375 -23.015625 C 3.34375 -23.203125 3.316406 -23.410156 3.265625 -23.640625 C 3.222656 -23.867188 3.140625 -24.082031 3.015625 -24.28125 C 2.898438 -24.488281 2.765625 -24.664062 2.609375 -24.8125 C 2.460938 -24.957031 2.285156 -25.03125 2.078125 -25.03125 L 1.890625 -25.03125 Z M 1.890625 -25.40625 "/></g></g></g><g fill="#ffffff" fill-opacity="1"><g transform="translate(155.9647, 160.549713)"><g><path d="M 5.78125 -0.390625 L 5.96875 -0.390625 L 5.96875 0 L 1.6875 0 L 1.6875 -0.390625 L 1.890625 -0.390625 C 2.066406 -0.390625 2.238281 -0.460938 2.40625 -0.609375 C 2.570312 -0.765625 2.707031 -0.945312 2.8125 -1.15625 C 2.914062 -1.363281 3 -1.585938 3.0625 -1.828125 C 3.125 -2.066406 3.15625 -2.289062 3.15625 -2.5 L 3.15625 -23.015625 C 3.15625 -23.203125 3.132812 -23.410156 3.09375 -23.640625 C 3.0625 -23.867188 2.992188 -24.082031 2.890625 -24.28125 C 2.785156 -24.488281 2.640625 -24.664062 2.453125 -24.8125 C 2.273438 -24.957031 2.0625 -25.03125 1.8125 -25.03125 L 1.609375 -25.03125 L 1.609375 -25.40625 L 5.5 -25.40625 L 19.484375 -3.390625 L 19.484375 -23.015625 C 19.484375 -23.203125 19.445312 -23.410156 19.375 -23.640625 C 19.3125 -23.867188 19.222656 -24.082031 19.109375 -24.28125 C 18.992188 -24.488281 18.859375 -24.664062 18.703125 -24.8125 C 18.554688 -24.957031 18.378906 -25.03125 18.171875 -25.03125 L 17.984375 -25.03125 L 17.984375 -25.40625 L 22.296875 -25.40625 L 22.296875 -25.03125 L 22.09375 -25.03125 C 21.894531 -25.03125 21.71875 -24.957031 21.5625 -24.8125 C 21.40625 -24.664062 21.269531 -24.488281 21.15625 -24.28125 C 21.039062 -24.082031 20.957031 -23.867188 20.90625 -23.640625 C 20.851562 -23.410156 20.828125 -23.203125 20.828125 -23.015625 L 20.828125 0 L 18.4375 0 L 4.5 -22.09375 L 4.5 -2.5 C 4.5 -2.289062 4.523438 -2.066406 4.578125 -1.828125 C 4.628906 -1.585938 4.710938 -1.363281 4.828125 -1.15625 C 4.941406 -0.945312 5.078125 -0.765625 5.234375 -0.609375 C 5.390625 -0.460938 5.570312 -0.390625 5.78125 -0.390625 Z M 5.78125 -0.390625 "/></g></g></g><g fill="#ffffff" fill-opacity="1"><g transform="translate(179.372871, 160.549713)"><g><path d="M 1.890625 -25.40625 L 7.390625 -25.40625 L 7.390625 -25.03125 L 7.203125 -25.03125 C 7.023438 -25.03125 6.859375 -24.957031 6.703125 -24.8125 C 6.546875 -24.664062 6.414062 -24.5 6.3125 -24.3125 C 6.207031 -24.125 6.125 -23.90625 6.0625 -23.65625 C 6 -23.414062 5.96875 -23.203125 5.96875 -23.015625 L 5.96875 -2.5 C 5.96875 -2.289062 5.992188 -2.066406 6.046875 -1.828125 C 6.097656 -1.585938 6.179688 -1.363281 6.296875 -1.15625 C 6.410156 -0.945312 6.535156 -0.765625 6.671875 -0.609375 C 6.816406 -0.460938 6.992188 -0.390625 7.203125 -0.390625 L 7.390625 -0.390625 L 7.390625 0 L 1.890625 0 L 1.890625 -0.390625 L 2.078125 -0.390625 C 2.285156 -0.390625 2.460938 -0.457031 2.609375 -0.59375 C 2.765625 -0.738281 2.898438 -0.921875 3.015625 -1.140625 C 3.140625 -1.359375 3.222656 -1.585938 3.265625 -1.828125 C 3.316406 -2.066406 3.34375 -2.289062 3.34375 -2.5 L 3.34375 -23.015625 C 3.34375 -23.203125 3.316406 -23.410156 3.265625 -23.640625 C 3.222656 -23.867188 3.140625 -24.082031 3.015625 -24.28125 C 2.898438 -24.488281 2.765625 -24.664062 2.609375 -24.8125 C 2.460938 -24.957031 2.285156 -25.03125 2.078125 -25.03125 L 1.890625 -25.03125 Z M 1.890625 -25.40625 "/></g></g></g><g fill="#ffffff" fill-opacity="1"><g transform="translate(187.958428, 160.549713)"><g><path d="M 15.28125 -24.40625 C 13.382812 -24.40625 11.734375 -24.066406 10.328125 -23.390625 C 8.929688 -22.710938 7.769531 -21.828125 6.84375 -20.734375 C 5.925781 -19.640625 5.242188 -18.410156 4.796875 -17.046875 C 4.347656 -15.691406 4.125 -14.347656 4.125 -13.015625 C 4.125 -11.492188 4.414062 -10.007812 5 -8.5625 C 5.59375 -7.113281 6.410156 -5.832031 7.453125 -4.71875 C 8.492188 -3.601562 9.707031 -2.703125 11.09375 -2.015625 C 12.476562 -1.335938 13.976562 -1 15.59375 -1 C 16.050781 -1 16.59375 -1.050781 17.21875 -1.15625 C 17.851562 -1.257812 18.476562 -1.457031 19.09375 -1.75 C 19.707031 -2.039062 20.273438 -2.457031 20.796875 -3 C 21.328125 -3.539062 21.734375 -4.25 22.015625 -5.125 L 22.40625 -5.125 L 22.40625 -0.84375 C 22.019531 -0.84375 21.613281 -0.789062 21.1875 -0.6875 C 20.769531 -0.582031 20.300781 -0.46875 19.78125 -0.34375 C 19.113281 -0.164062 18.375 0 17.5625 0.15625 C 16.757812 0.3125 15.910156 0.390625 15.015625 0.390625 C 12.785156 0.390625 10.820312 0.00390625 9.125 -0.765625 C 7.425781 -1.535156 6.015625 -2.535156 4.890625 -3.765625 C 3.765625 -5.003906 2.914062 -6.398438 2.34375 -7.953125 C 1.78125 -9.503906 1.5 -11.078125 1.5 -12.671875 C 1.5 -14.253906 1.78125 -15.828125 2.34375 -17.390625 C 2.914062 -18.960938 3.773438 -20.367188 4.921875 -21.609375 C 6.078125 -22.859375 7.523438 -23.867188 9.265625 -24.640625 C 11.015625 -25.410156 13.070312 -25.796875 15.4375 -25.796875 C 16.28125 -25.796875 17.039062 -25.71875 17.71875 -25.5625 C 18.40625 -25.40625 19.019531 -25.253906 19.5625 -25.109375 C 19.945312 -24.972656 20.296875 -24.875 20.609375 -24.8125 C 20.929688 -24.75 21.25 -24.71875 21.5625 -24.71875 L 21.5625 -20.4375 L 21.171875 -20.4375 C 21.015625 -21.238281 20.734375 -21.898438 20.328125 -22.421875 C 19.921875 -22.953125 19.441406 -23.359375 18.890625 -23.640625 C 18.335938 -23.921875 17.742188 -24.117188 17.109375 -24.234375 C 16.484375 -24.347656 15.875 -24.40625 15.28125 -24.40625 Z M 15.28125 -24.40625 "/></g></g></g><g fill="#ffffff" fill-opacity="1"><g transform="translate(211.174097, 160.549713)"><g><path d="M 14.703125 -25.796875 C 16.703125 -25.796875 18.5 -25.441406 20.09375 -24.734375 C 21.6875 -24.023438 23.039062 -23.070312 24.15625 -21.875 C 25.269531 -20.6875 26.128906 -19.300781 26.734375 -17.71875 C 27.335938 -16.144531 27.640625 -14.5 27.640625 -12.78125 C 27.640625 -10.851562 27.285156 -9.082031 26.578125 -7.46875 C 25.878906 -5.851562 24.910156 -4.46875 23.671875 -3.3125 C 22.441406 -2.15625 21.007812 -1.25 19.375 -0.59375 C 17.75 0.0625 16.015625 0.390625 14.171875 0.390625 C 12.191406 0.390625 10.410156 0.03125 8.828125 -0.6875 C 7.253906 -1.40625 5.921875 -2.351562 4.828125 -3.53125 C 3.742188 -4.71875 2.90625 -6.082031 2.3125 -7.625 C 1.71875 -9.164062 1.421875 -10.769531 1.421875 -12.4375 C 1.421875 -14.082031 1.71875 -15.707031 2.3125 -17.3125 C 2.90625 -18.914062 3.769531 -20.34375 4.90625 -21.59375 C 6.050781 -22.851562 7.441406 -23.867188 9.078125 -24.640625 C 10.722656 -25.410156 12.597656 -25.796875 14.703125 -25.796875 Z M 14.671875 -0.96875 C 16.390625 -1.039062 17.894531 -1.429688 19.1875 -2.140625 C 20.488281 -2.847656 21.570312 -3.742188 22.4375 -4.828125 C 23.3125 -5.921875 23.960938 -7.117188 24.390625 -8.421875 C 24.816406 -9.734375 25.03125 -11.03125 25.03125 -12.3125 C 25.03125 -13.726562 24.769531 -15.15625 24.25 -16.59375 C 23.738281 -18.03125 23.007812 -19.332031 22.0625 -20.5 C 21.113281 -21.664062 19.976562 -22.613281 18.65625 -23.34375 C 17.332031 -24.082031 15.847656 -24.453125 14.203125 -24.453125 C 12.609375 -24.453125 11.179688 -24.097656 9.921875 -23.390625 C 8.671875 -22.679688 7.601562 -21.773438 6.71875 -20.671875 C 5.832031 -19.566406 5.15625 -18.332031 4.6875 -16.96875 C 4.226562 -15.613281 4 -14.28125 4 -12.96875 C 4 -11.5625 4.269531 -10.144531 4.8125 -8.71875 C 5.351562 -7.289062 6.097656 -6 7.046875 -4.84375 C 7.992188 -3.695312 9.113281 -2.765625 10.40625 -2.046875 C 11.707031 -1.328125 13.128906 -0.96875 14.671875 -0.96875 Z M 14.671875 -0.96875 "/></g></g></g><g fill="#ffffff" fill-opacity="1"><g transform="translate(239.702798, 160.549713)"><g><path d="M 5.78125 -0.390625 L 5.96875 -0.390625 L 5.96875 0 L 1.6875 0 L 1.6875 -0.390625 L 1.890625 -0.390625 C 2.066406 -0.390625 2.238281 -0.460938 2.40625 -0.609375 C 2.570312 -0.765625 2.707031 -0.945312 2.8125 -1.15625 C 2.914062 -1.363281 3 -1.585938 3.0625 -1.828125 C 3.125 -2.066406 3.15625 -2.289062 3.15625 -2.5 L 3.15625 -23.015625 C 3.15625 -23.203125 3.132812 -23.410156 3.09375 -23.640625 C 3.0625 -23.867188 2.992188 -24.082031 2.890625 -24.28125 C 2.785156 -24.488281 2.640625 -24.664062 2.453125 -24.8125 C 2.273438 -24.957031 2.0625 -25.03125 1.8125 -25.03125 L 1.609375 -25.03125 L 1.609375 -25.40625 L 5.5 -25.40625 L 19.484375 -3.390625 L 19.484375 -23.015625 C 19.484375 -23.203125 19.445312 -23.410156 19.375 -23.640625 C 19.3125 -23.867188 19.222656 -24.082031 19.109375 -24.28125 C 18.992188 -24.488281 18.859375 -24.664062 18.703125 -24.8125 C 18.554688 -24.957031 18.378906 -25.03125 18.171875 -25.03125 L 17.984375 -25.03125 L 17.984375 -25.40625 L 22.296875 -25.40625 L 22.296875 -25.03125 L 22.09375 -25.03125 C 21.894531 -25.03125 21.71875 -24.957031 21.5625 -24.8125 C 21.40625 -24.664062 21.269531 -24.488281 21.15625 -24.28125 C 21.039062 -24.082031 20.957031 -23.867188 20.90625 -23.640625 C 20.851562 -23.410156 20.828125 -23.203125 20.828125 -23.015625 L 20.828125 0 L 18.4375 0 L 4.5 -22.09375 L 4.5 -2.5 C 4.5 -2.289062 4.523438 -2.066406 4.578125 -1.828125 C 4.628906 -1.585938 4.710938 -1.363281 4.828125 -1.15625 C 4.941406 -0.945312 5.078125 -0.765625 5.234375 -0.609375 C 5.390625 -0.460938 5.570312 -0.390625 5.78125 -0.390625 Z M 5.78125 -0.390625 "/></g></g></g><g fill="#ffffff" fill-opacity="1"><g transform="translate(263.110965, 160.549713)"><g><path d="M 14.703125 -25.796875 C 16.703125 -25.796875 18.5 -25.441406 20.09375 -24.734375 C 21.6875 -24.023438 23.039062 -23.070312 24.15625 -21.875 C 25.269531 -20.6875 26.128906 -19.300781 26.734375 -17.71875 C 27.335938 -16.144531 27.640625 -14.5 27.640625 -12.78125 C 27.640625 -10.851562 27.285156 -9.082031 26.578125 -7.46875 C 25.878906 -5.851562 24.910156 -4.46875 23.671875 -3.3125 C 22.441406 -2.15625 21.007812 -1.25 19.375 -0.59375 C 17.75 0.0625 16.015625 0.390625 14.171875 0.390625 C 12.191406 0.390625 10.410156 0.03125 8.828125 -0.6875 C 7.253906 -1.40625 5.921875 -2.351562 4.828125 -3.53125 C 3.742188 -4.71875 2.90625 -6.082031 2.3125 -7.625 C 1.71875 -9.164062 1.421875 -10.769531 1.421875 -12.4375 C 1.421875 -14.082031 1.71875 -15.707031 2.3125 -17.3125 C 2.90625 -18.914062 3.769531 -20.34375 4.90625 -21.59375 C 6.050781 -22.851562 7.441406 -23.867188 9.078125 -24.640625 C 10.722656 -25.410156 12.597656 -25.796875 14.703125 -25.796875 Z M 14.671875 -0.96875 C 16.390625 -1.039062 17.894531 -1.429688 19.1875 -2.140625 C 20.488281 -2.847656 21.570312 -3.742188 22.4375 -4.828125 C 23.3125 -5.921875 23.960938 -7.117188 24.390625 -8.421875 C 24.816406 -9.734375 25.03125 -11.03125 25.03125 -12.3125 C 25.03125 -13.726562 24.769531 -15.15625 24.25 -16.59375 C 23.738281 -18.03125 23.007812 -19.332031 22.0625 -20.5 C 21.113281 -21.664062 19.976562 -22.613281 18.65625 -23.34375 C 17.332031 -24.082031 15.847656 -24.453125 14.203125 -24.453125 C 12.609375 -24.453125 11.179688 -24.097656 9.921875 -23.390625 C 8.671875 -22.679688 7.601562 -21.773438 6.71875 -20.671875 C 5.832031 -19.566406 5.15625 -18.332031 4.6875 -16.96875 C 4.226562 -15.613281 4 -14.28125 4 -12.96875 C 4 -11.5625 4.269531 -10.144531 4.8125 -8.71875 C 5.351562 -7.289062 6.097656 -6 7.046875 -4.84375 C 7.992188 -3.695312 9.113281 -2.765625 10.40625 -2.046875 C 11.707031 -1.328125 13.128906 -0.96875 14.671875 -0.96875 Z M 14.671875 -0.96875 "/></g></g></g><g fill="#ffffff" fill-opacity="1"><g transform="translate(291.639666, 160.549713)"><g><path d="M 22.453125 -0.390625 L 22.640625 -0.390625 C 22.816406 -0.390625 22.984375 -0.460938 23.140625 -0.609375 C 23.296875 -0.765625 23.429688 -0.945312 23.546875 -1.15625 C 23.660156 -1.363281 23.742188 -1.585938 23.796875 -1.828125 C 23.847656 -2.066406 23.875 -2.289062 23.875 -2.5 L 23.875 -22.75 L 13.9375 0.421875 L 4.5 -21.5625 L 4.5 -2.5 C 4.5 -2.289062 4.523438 -2.066406 4.578125 -1.828125 C 4.628906 -1.585938 4.710938 -1.363281 4.828125 -1.15625 C 4.941406 -0.945312 5.078125 -0.765625 5.234375 -0.609375 C 5.390625 -0.460938 5.570312 -0.390625 5.78125 -0.390625 L 5.96875 -0.390625 L 5.96875 0 L 1.765625 0 L 1.765625 -0.390625 L 1.96875 -0.390625 C 2.144531 -0.390625 2.304688 -0.460938 2.453125 -0.609375 C 2.609375 -0.765625 2.738281 -0.945312 2.84375 -1.15625 C 2.945312 -1.363281 3.023438 -1.585938 3.078125 -1.828125 C 3.128906 -2.066406 3.15625 -2.289062 3.15625 -2.5 L 3.15625 -23.015625 C 3.15625 -23.203125 3.128906 -23.410156 3.078125 -23.640625 C 3.023438 -23.867188 2.945312 -24.082031 2.84375 -24.28125 C 2.738281 -24.488281 2.609375 -24.664062 2.453125 -24.8125 C 2.304688 -24.957031 2.144531 -25.03125 1.96875 -25.03125 L 1.765625 -25.03125 L 1.765625 -25.40625 L 5.703125 -25.40625 L 14.625 -4.34375 L 23.5625 -25.40625 L 27.90625 -25.40625 L 27.90625 -25.03125 L 27.71875 -25.03125 C 27.507812 -25.03125 27.328125 -24.957031 27.171875 -24.8125 C 27.023438 -24.664062 26.894531 -24.488281 26.78125 -24.28125 C 26.664062 -24.082031 26.582031 -23.867188 26.53125 -23.640625 C 26.476562 -23.410156 26.453125 -23.203125 26.453125 -23.015625 L 26.453125 -2.5 C 26.453125 -2.289062 26.476562 -2.066406 26.53125 -1.828125 C 26.582031 -1.585938 26.664062 -1.363281 26.78125 -1.15625 C 26.894531 -0.945312 27.023438 -0.765625 27.171875 -0.609375 C 27.328125 -0.460938 27.507812 -0.390625 27.71875 -0.390625 L 27.90625 -0.390625 L 27.90625 0 L 22.453125 0 Z M 22.453125 -0.390625 "/></g></g></g><g fill="#ffffff" fill-opacity="1"><g transform="translate(320.784372, 160.549713)"><g><path d="M 0.109375 -25.40625 L 5.421875 -25.40625 L 5.421875 -25.03125 C 5.242188 -25 5.078125 -24.914062 4.921875 -24.78125 C 4.773438 -24.65625 4.703125 -24.46875 4.703125 -24.21875 C 4.703125 -24.09375 4.738281 -23.953125 4.8125 -23.796875 L 10.59375 -13.671875 L 16.125 -23.25 C 16.226562 -23.457031 16.300781 -23.613281 16.34375 -23.71875 C 16.382812 -23.820312 16.40625 -23.945312 16.40625 -24.09375 C 16.351562 -24.507812 16.203125 -24.769531 15.953125 -24.875 C 15.710938 -24.976562 15.566406 -25.03125 15.515625 -25.03125 L 15.515625 -25.40625 L 19.640625 -25.40625 L 19.640625 -25.03125 C 19.253906 -25.03125 18.859375 -24.789062 18.453125 -24.3125 C 18.054688 -23.832031 17.71875 -23.351562 17.4375 -22.875 L 11.4375 -12.46875 L 11.4375 -2.5 C 11.4375 -2.289062 11.46875 -2.070312 11.53125 -1.84375 C 11.59375 -1.613281 11.675781 -1.390625 11.78125 -1.171875 C 11.882812 -0.953125 12.007812 -0.765625 12.15625 -0.609375 C 12.3125 -0.460938 12.492188 -0.390625 12.703125 -0.390625 L 12.890625 -0.390625 L 12.890625 0 L 7.390625 0 L 7.390625 -0.390625 L 7.578125 -0.390625 C 7.785156 -0.390625 7.96875 -0.457031 8.125 -0.59375 C 8.28125 -0.738281 8.414062 -0.921875 8.53125 -1.140625 C 8.644531 -1.359375 8.726562 -1.585938 8.78125 -1.828125 C 8.832031 -2.066406 8.859375 -2.289062 8.859375 -2.5 L 8.859375 -12.125 L 2.65625 -22.75 C 2.53125 -22.957031 2.375 -23.1875 2.1875 -23.4375 C 2.007812 -23.695312 1.816406 -23.941406 1.609375 -24.171875 C 1.410156 -24.410156 1.191406 -24.613281 0.953125 -24.78125 C 0.722656 -24.945312 0.507812 -25.03125 0.3125 -25.03125 L 0.109375 -25.03125 Z M 0.109375 -25.40625 "/></g></g></g><g fill="#ffffff" fill-opacity="1"><g transform="translate(118.234434, 199.050025)"><g><path d="M 15.28125 -24.40625 C 13.382812 -24.40625 11.734375 -24.066406 10.328125 -23.390625 C 8.929688 -22.710938 7.769531 -21.828125 6.84375 -20.734375 C 5.925781 -19.640625 5.242188 -18.410156 4.796875 -17.046875 C 4.347656 -15.691406 4.125 -14.347656 4.125 -13.015625 C 4.125 -11.492188 4.414062 -10.007812 5 -8.5625 C 5.59375 -7.113281 6.410156 -5.832031 7.453125 -4.71875 C 8.492188 -3.601562 9.707031 -2.703125 11.09375 -2.015625 C 12.476562 -1.335938 13.976562 -1 15.59375 -1 C 16.050781 -1 16.59375 -1.050781 17.21875 -1.15625 C 17.851562 -1.257812 18.476562 -1.457031 19.09375 -1.75 C 19.707031 -2.039062 20.273438 -2.457031 20.796875 -3 C 21.328125 -3.539062 21.734375 -4.25 22.015625 -5.125 L 22.40625 -5.125 L 22.40625 -0.84375 C 22.019531 -0.84375 21.613281 -0.789062 21.1875 -0.6875 C 20.769531 -0.582031 20.300781 -0.46875 19.78125 -0.34375 C 19.113281 -0.164062 18.375 0 17.5625 0.15625 C 16.757812 0.3125 15.910156 0.390625 15.015625 0.390625 C 12.785156 0.390625 10.820312 0.00390625 9.125 -0.765625 C 7.425781 -1.535156 6.015625 -2.535156 4.890625 -3.765625 C 3.765625 -5.003906 2.914062 -6.398438 2.34375 -7.953125 C 1.78125 -9.503906 1.5 -11.078125 1.5 -12.671875 C 1.5 -14.253906 1.78125 -15.828125 2.34375 -17.390625 C 2.914062 -18.960938 3.773438 -20.367188 4.921875 -21.609375 C 6.078125 -22.859375 7.523438 -23.867188 9.265625 -24.640625 C 11.015625 -25.410156 13.070312 -25.796875 15.4375 -25.796875 C 16.28125 -25.796875 17.039062 -25.71875 17.71875 -25.5625 C 18.40625 -25.40625 19.019531 -25.253906 19.5625 -25.109375 C 19.945312 -24.972656 20.296875 -24.875 20.609375 -24.8125 C 20.929688 -24.75 21.25 -24.71875 21.5625 -24.71875 L 21.5625 -20.4375 L 21.171875 -20.4375 C 21.015625 -21.238281 20.734375 -21.898438 20.328125 -22.421875 C 19.921875 -22.953125 19.441406 -23.359375 18.890625 -23.640625 C 18.335938 -23.921875 17.742188 -24.117188 17.109375 -24.234375 C 16.484375 -24.347656 15.875 -24.40625 15.28125 -24.40625 Z M 15.28125 -24.40625 "/></g></g></g><g fill="#ffffff" fill-opacity="1"><g transform="translate(141.450107, 199.050025)"><g><path d="M 14.703125 -25.796875 C 16.703125 -25.796875 18.5 -25.441406 20.09375 -24.734375 C 21.6875 -24.023438 23.039062 -23.070312 24.15625 -21.875 C 25.269531 -20.6875 26.128906 -19.300781 26.734375 -17.71875 C 27.335938 -16.144531 27.640625 -14.5 27.640625 -12.78125 C 27.640625 -10.851562 27.285156 -9.082031 26.578125 -7.46875 C 25.878906 -5.851562 24.910156 -4.46875 23.671875 -3.3125 C 22.441406 -2.15625 21.007812 -1.25 19.375 -0.59375 C 17.75 0.0625 16.015625 0.390625 14.171875 0.390625 C 12.191406 0.390625 10.410156 0.03125 8.828125 -0.6875 C 7.253906 -1.40625 5.921875 -2.351562 4.828125 -3.53125 C 3.742188 -4.71875 2.90625 -6.082031 2.3125 -7.625 C 1.71875 -9.164062 1.421875 -10.769531 1.421875 -12.4375 C 1.421875 -14.082031 1.71875 -15.707031 2.3125 -17.3125 C 2.90625 -18.914062 3.769531 -20.34375 4.90625 -21.59375 C 6.050781 -22.851562 7.441406 -23.867188 9.078125 -24.640625 C 10.722656 -25.410156 12.597656 -25.796875 14.703125 -25.796875 Z M 14.671875 -0.96875 C 16.390625 -1.039062 17.894531 -1.429688 19.1875 -2.140625 C 20.488281 -2.847656 21.570312 -3.742188 22.4375 -4.828125 C 23.3125 -5.921875 23.960938 -7.117188 24.390625 -8.421875 C 24.816406 -9.734375 25.03125 -11.03125 25.03125 -12.3125 C 25.03125 -13.726562 24.769531 -15.15625 24.25 -16.59375 C 23.738281 -18.03125 23.007812 -19.332031 22.0625 -20.5 C 21.113281 -21.664062 19.976562 -22.613281 18.65625 -23.34375 C 17.332031 -24.082031 15.847656 -24.453125 14.203125 -24.453125 C 12.609375 -24.453125 11.179688 -24.097656 9.921875 -23.390625 C 8.671875 -22.679688 7.601562 -21.773438 6.71875 -20.671875 C 5.832031 -19.566406 5.15625 -18.332031 4.6875 -16.96875 C 4.226562 -15.613281 4 -14.28125 4 -12.96875 C 4 -11.5625 4.269531 -10.144531 4.8125 -8.71875 C 5.351562 -7.289062 6.097656 -6 7.046875 -4.84375 C 7.992188 -3.695312 9.113281 -2.765625 10.40625 -2.046875 C 11.707031 -1.328125 13.128906 -0.96875 14.671875 -0.96875 Z M 14.671875 -0.96875 "/></g></g></g><g fill="#ffffff" fill-opacity="1"><g transform="translate(169.978812, 199.050025)"><g><path d="M 22.453125 -0.390625 L 22.640625 -0.390625 C 22.816406 -0.390625 22.984375 -0.460938 23.140625 -0.609375 C 23.296875 -0.765625 23.429688 -0.945312 23.546875 -1.15625 C 23.660156 -1.363281 23.742188 -1.585938 23.796875 -1.828125 C 23.847656 -2.066406 23.875 -2.289062 23.875 -2.5 L 23.875 -22.75 L 13.9375 0.421875 L 4.5 -21.5625 L 4.5 -2.5 C 4.5 -2.289062 4.523438 -2.066406 4.578125 -1.828125 C 4.628906 -1.585938 4.710938 -1.363281 4.828125 -1.15625 C 4.941406 -0.945312 5.078125 -0.765625 5.234375 -0.609375 C 5.390625 -0.460938 5.570312 -0.390625 5.78125 -0.390625 L 5.96875 -0.390625 L 5.96875 0 L 1.765625 0 L 1.765625 -0.390625 L 1.96875 -0.390625 C 2.144531 -0.390625 2.304688 -0.460938 2.453125 -0.609375 C 2.609375 -0.765625 2.738281 -0.945312 2.84375 -1.15625 C 2.945312 -1.363281 3.023438 -1.585938 3.078125 -1.828125 C 3.128906 -2.066406 3.15625 -2.289062 3.15625 -2.5 L 3.15625 -23.015625 C 3.15625 -23.203125 3.128906 -23.410156 3.078125 -23.640625 C 3.023438 -23.867188 2.945312 -24.082031 2.84375 -24.28125 C 2.738281 -24.488281 2.609375 -24.664062 2.453125 -24.8125 C 2.304688 -24.957031 2.144531 -25.03125 1.96875 -25.03125 L 1.765625 -25.03125 L 1.765625 -25.40625 L 5.703125 -25.40625 L 14.625 -4.34375 L 23.5625 -25.40625 L 27.90625 -25.40625 L 27.90625 -25.03125 L 27.71875 -25.03125 C 27.507812 -25.03125 27.328125 -24.957031 27.171875 -24.8125 C 27.023438 -24.664062 26.894531 -24.488281 26.78125 -24.28125 C 26.664062 -24.082031 26.582031 -23.867188 26.53125 -23.640625 C 26.476562 -23.410156 26.453125 -23.203125 26.453125 -23.015625 L 26.453125 -2.5 C 26.453125 -2.289062 26.476562 -2.066406 26.53125 -1.828125 C 26.582031 -1.585938 26.664062 -1.363281 26.78125 -1.15625 C 26.894531 -0.945312 27.023438 -0.765625 27.171875 -0.609375 C 27.328125 -0.460938 27.507812 -0.390625 27.71875 -0.390625 L 27.90625 -0.390625 L 27.90625 0 L 22.453125 0 Z M 22.453125 -0.390625 "/></g></g></g><g fill="#ffffff" fill-opacity="1"><g transform="translate(199.123525, 199.050025)"><g><path d="M 22.453125 -0.390625 L 22.640625 -0.390625 C 22.816406 -0.390625 22.984375 -0.460938 23.140625 -0.609375 C 23.296875 -0.765625 23.429688 -0.945312 23.546875 -1.15625 C 23.660156 -1.363281 23.742188 -1.585938 23.796875 -1.828125 C 23.847656 -2.066406 23.875 -2.289062 23.875 -2.5 L 23.875 -22.75 L 13.9375 0.421875 L 4.5 -21.5625 L 4.5 -2.5 C 4.5 -2.289062 4.523438 -2.066406 4.578125 -1.828125 C 4.628906 -1.585938 4.710938 -1.363281 4.828125 -1.15625 C 4.941406 -0.945312 5.078125 -0.765625 5.234375 -0.609375 C 5.390625 -0.460938 5.570312 -0.390625 5.78125 -0.390625 L 5.96875 -0.390625 L 5.96875 0 L 1.765625 0 L 1.765625 -0.390625 L 1.96875 -0.390625 C 2.144531 -0.390625 2.304688 -0.460938 2.453125 -0.609375 C 2.609375 -0.765625 2.738281 -0.945312 2.84375 -1.15625 C 2.945312 -1.363281 3.023438 -1.585938 3.078125 -1.828125 C 3.128906 -2.066406 3.15625 -2.289062 3.15625 -2.5 L 3.15625 -23.015625 C 3.15625 -23.203125 3.128906 -23.410156 3.078125 -23.640625 C 3.023438 -23.867188 2.945312 -24.082031 2.84375 -24.28125 C 2.738281 -24.488281 2.609375 -24.664062 2.453125 -24.8125 C 2.304688 -24.957031 2.144531 -25.03125 1.96875 -25.03125 L 1.765625 -25.03125 L 1.765625 -25.40625 L 5.703125 -25.40625 L 14.625 -4.34375 L 23.5625 -25.40625 L 27.90625 -25.40625 L 27.90625 -25.03125 L 27.71875 -25.03125 C 27.507812 -25.03125 27.328125 -24.957031 27.171875 -24.8125 C 27.023438 -24.664062 26.894531 -24.488281 26.78125 -24.28125 C 26.664062 -24.082031 26.582031 -23.867188 26.53125 -23.640625 C 26.476562 -23.410156 26.453125 -23.203125 26.453125 -23.015625 L 26.453125 -2.5 C 26.453125 -2.289062 26.476562 -2.066406 26.53125 -1.828125 C 26.582031 -1.585938 26.664062 -1.363281 26.78125 -1.15625 C 26.894531 -0.945312 27.023438 -0.765625 27.171875 -0.609375 C 27.328125 -0.460938 27.507812 -0.390625 27.71875 -0.390625 L 27.90625 -0.390625 L 27.90625 0 L 22.453125 0 Z M 22.453125 -0.390625 "/></g></g></g><g fill="#ffffff" fill-opacity="1"><g transform="translate(228.26823, 199.050025)"><g><path d="M 1.734375 -0.390625 L 1.921875 -0.390625 C 2.128906 -0.390625 2.304688 -0.457031 2.453125 -0.59375 C 2.609375 -0.738281 2.742188 -0.910156 2.859375 -1.109375 C 2.984375 -1.316406 3.078125 -1.535156 3.140625 -1.765625 C 3.203125 -2.003906 3.234375 -2.222656 3.234375 -2.421875 L 3.234375 -23.015625 C 3.234375 -23.203125 3.203125 -23.410156 3.140625 -23.640625 C 3.078125 -23.867188 2.984375 -24.082031 2.859375 -24.28125 C 2.742188 -24.488281 2.609375 -24.664062 2.453125 -24.8125 C 2.304688 -24.957031 2.128906 -25.03125 1.921875 -25.03125 L 1.734375 -25.03125 L 1.734375 -25.40625 L 16.5625 -25.40625 L 16.5625 -21.828125 L 16.171875 -21.828125 C 16.117188 -22.421875 15.882812 -22.941406 15.46875 -23.390625 C 15.0625 -23.835938 14.421875 -24.0625 13.546875 -24.0625 L 5.8125 -24.0625 L 5.8125 -14.328125 L 12.203125 -14.328125 C 12.796875 -14.328125 13.289062 -14.503906 13.6875 -14.859375 C 14.082031 -15.222656 14.28125 -15.644531 14.28125 -16.125 L 14.671875 -16.125 L 14.671875 -11.3125 L 14.28125 -11.3125 C 14.28125 -11.78125 14.085938 -12.179688 13.703125 -12.515625 C 13.316406 -12.847656 12.816406 -13.015625 12.203125 -13.015625 L 5.8125 -13.015625 L 5.8125 -1.34375 L 14.25 -1.34375 C 14.726562 -1.34375 15.144531 -1.457031 15.5 -1.6875 C 15.863281 -1.925781 16.164062 -2.203125 16.40625 -2.515625 C 16.65625 -2.835938 16.835938 -3.1875 16.953125 -3.5625 C 17.066406 -3.9375 17.125 -4.25 17.125 -4.5 L 17.515625 -4.5 L 17.515625 0 L 1.734375 0 Z M 1.734375 -0.390625 "/></g></g></g><g fill="#ffffff" fill-opacity="1"><g transform="translate(246.170852, 199.050025)"><g><path d="M 6.96875 -0.390625 L 7.15625 -0.390625 L 7.15625 0 L 1.734375 0 L 1.734375 -0.390625 L 1.921875 -0.390625 C 2.097656 -0.390625 2.265625 -0.460938 2.421875 -0.609375 C 2.578125 -0.765625 2.710938 -0.945312 2.828125 -1.15625 C 2.941406 -1.363281 3.023438 -1.585938 3.078125 -1.828125 C 3.128906 -2.066406 3.15625 -2.289062 3.15625 -2.5 L 3.15625 -23.015625 C 3.15625 -23.203125 3.128906 -23.410156 3.078125 -23.640625 C 3.023438 -23.867188 2.941406 -24.082031 2.828125 -24.28125 C 2.710938 -24.488281 2.578125 -24.664062 2.421875 -24.8125 C 2.265625 -24.957031 2.097656 -25.03125 1.921875 -25.03125 L 1.734375 -25.03125 L 1.734375 -25.40625 L 8.4375 -25.40625 C 11 -25.40625 12.976562 -24.90625 14.375 -23.90625 C 15.78125 -22.90625 16.484375 -21.429688 16.484375 -19.484375 C 16.484375 -18.503906 16.320312 -17.648438 16 -16.921875 C 15.675781 -16.191406 15.242188 -15.5625 14.703125 -15.03125 C 14.171875 -14.507812 13.535156 -14.085938 12.796875 -13.765625 C 12.066406 -13.441406 11.289062 -13.203125 10.46875 -13.046875 L 13.25 -8.8125 C 13.914062 -7.789062 14.59375 -6.785156 15.28125 -5.796875 C 15.976562 -4.804688 16.660156 -3.785156 17.328125 -2.734375 C 17.503906 -2.472656 17.703125 -2.203125 17.921875 -1.921875 C 18.140625 -1.640625 18.367188 -1.382812 18.609375 -1.15625 C 18.859375 -0.925781 19.113281 -0.738281 19.375 -0.59375 C 19.644531 -0.457031 19.925781 -0.390625 20.21875 -0.390625 L 20.21875 0 L 18.5625 0 C 17.53125 0 16.6875 -0.25 16.03125 -0.75 C 15.375 -1.25 14.832031 -1.832031 14.40625 -2.5 C 13.25 -4.195312 12.097656 -5.914062 10.953125 -7.65625 C 9.804688 -9.40625 8.671875 -11.128906 7.546875 -12.828125 C 7.265625 -12.847656 6.960938 -12.875 6.640625 -12.90625 C 6.316406 -12.945312 6.015625 -12.992188 5.734375 -13.046875 L 5.734375 -2.5 C 5.734375 -2.289062 5.757812 -2.066406 5.8125 -1.828125 C 5.863281 -1.585938 5.945312 -1.363281 6.0625 -1.15625 C 6.175781 -0.945312 6.300781 -0.765625 6.4375 -0.609375 C 6.582031 -0.460938 6.757812 -0.390625 6.96875 -0.390625 Z M 5.734375 -24.09375 L 5.734375 -14.328125 L 5.921875 -14.328125 C 6.128906 -14.296875 6.457031 -14.273438 6.90625 -14.265625 C 7.351562 -14.253906 7.910156 -14.25 8.578125 -14.25 C 9.117188 -14.25 9.691406 -14.332031 10.296875 -14.5 C 10.898438 -14.664062 11.460938 -14.945312 11.984375 -15.34375 C 12.515625 -15.738281 12.953125 -16.253906 13.296875 -16.890625 C 13.648438 -17.535156 13.828125 -18.347656 13.828125 -19.328125 C 13.828125 -20.304688 13.640625 -21.101562 13.265625 -21.71875 C 12.890625 -22.332031 12.375 -22.816406 11.71875 -23.171875 C 11.0625 -23.535156 10.269531 -23.78125 9.34375 -23.90625 C 8.425781 -24.03125 7.414062 -24.09375 6.3125 -24.09375 Z M 5.734375 -24.09375 "/></g></g></g><g fill="#ffffff" fill-opacity="1"><g transform="translate(266.190988, 199.050025)"><g><path d="M 1.890625 -25.40625 L 7.390625 -25.40625 L 7.390625 -25.03125 L 7.203125 -25.03125 C 7.023438 -25.03125 6.859375 -24.957031 6.703125 -24.8125 C 6.546875 -24.664062 6.414062 -24.5 6.3125 -24.3125 C 6.207031 -24.125 6.125 -23.90625 6.0625 -23.65625 C 6 -23.414062 5.96875 -23.203125 5.96875 -23.015625 L 5.96875 -2.5 C 5.96875 -2.289062 5.992188 -2.066406 6.046875 -1.828125 C 6.097656 -1.585938 6.179688 -1.363281 6.296875 -1.15625 C 6.410156 -0.945312 6.535156 -0.765625 6.671875 -0.609375 C 6.816406 -0.460938 6.992188 -0.390625 7.203125 -0.390625 L 7.390625 -0.390625 L 7.390625 0 L 1.890625 0 L 1.890625 -0.390625 L 2.078125 -0.390625 C 2.285156 -0.390625 2.460938 -0.457031 2.609375 -0.59375 C 2.765625 -0.738281 2.898438 -0.921875 3.015625 -1.140625 C 3.140625 -1.359375 3.222656 -1.585938 3.265625 -1.828125 C 3.316406 -2.066406 3.34375 -2.289062 3.34375 -2.5 L 3.34375 -23.015625 C 3.34375 -23.203125 3.316406 -23.410156 3.265625 -23.640625 C 3.222656 -23.867188 3.140625 -24.082031 3.015625 -24.28125 C 2.898438 -24.488281 2.765625 -24.664062 2.609375 -24.8125 C 2.460938 -24.957031 2.285156 -25.03125 2.078125 -25.03125 L 1.890625 -25.03125 Z M 1.890625 -25.40625 "/></g></g></g><g fill="#ffffff" fill-opacity="1"><g transform="translate(274.776541, 199.050025)"><g><path d="M 15.28125 -24.40625 C 13.382812 -24.40625 11.734375 -24.066406 10.328125 -23.390625 C 8.929688 -22.710938 7.769531 -21.828125 6.84375 -20.734375 C 5.925781 -19.640625 5.242188 -18.410156 4.796875 -17.046875 C 4.347656 -15.691406 4.125 -14.347656 4.125 -13.015625 C 4.125 -11.492188 4.414062 -10.007812 5 -8.5625 C 5.59375 -7.113281 6.410156 -5.832031 7.453125 -4.71875 C 8.492188 -3.601562 9.707031 -2.703125 11.09375 -2.015625 C 12.476562 -1.335938 13.976562 -1 15.59375 -1 C 16.050781 -1 16.59375 -1.050781 17.21875 -1.15625 C 17.851562 -1.257812 18.476562 -1.457031 19.09375 -1.75 C 19.707031 -2.039062 20.273438 -2.457031 20.796875 -3 C 21.328125 -3.539062 21.734375 -4.25 22.015625 -5.125 L 22.40625 -5.125 L 22.40625 -0.84375 C 22.019531 -0.84375 21.613281 -0.789062 21.1875 -0.6875 C 20.769531 -0.582031 20.300781 -0.46875 19.78125 -0.34375 C 19.113281 -0.164062 18.375 0 17.5625 0.15625 C 16.757812 0.3125 15.910156 0.390625 15.015625 0.390625 C 12.785156 0.390625 10.820312 0.00390625 9.125 -0.765625 C 7.425781 -1.535156 6.015625 -2.535156 4.890625 -3.765625 C 3.765625 -5.003906 2.914062 -6.398438 2.34375 -7.953125 C 1.78125 -9.503906 1.5 -11.078125 1.5 -12.671875 C 1.5 -14.253906 1.78125 -15.828125 2.34375 -17.390625 C 2.914062 -18.960938 3.773438 -20.367188 4.921875 -21.609375 C 6.078125 -22.859375 7.523438 -23.867188 9.265625 -24.640625 C 11.015625 -25.410156 13.070312 -25.796875 15.4375 -25.796875 C 16.28125 -25.796875 17.039062 -25.71875 17.71875 -25.5625 C 18.40625 -25.40625 19.019531 -25.253906 19.5625 -25.109375 C 19.945312 -24.972656 20.296875 -24.875 20.609375 -24.8125 C 20.929688 -24.75 21.25 -24.71875 21.5625 -24.71875 L 21.5625 -20.4375 L 21.171875 -20.4375 C 21.015625 -21.238281 20.734375 -21.898438 20.328125 -22.421875 C 19.921875 -22.953125 19.441406 -23.359375 18.890625 -23.640625 C 18.335938 -23.921875 17.742188 -24.117188 17.109375 -24.234375 C 16.484375 -24.347656 15.875 -24.40625 15.28125 -24.40625 Z M 15.28125 -24.40625 "/></g></g></g><g fill="#ffffff" fill-opacity="1"><g transform="translate(297.99221, 199.050025)"><g><path d="M 16.4375 -0.390625 L 16.625 -0.390625 C 17.25 -0.390625 17.5625 -0.671875 17.5625 -1.234375 C 17.5625 -1.441406 17.519531 -1.660156 17.4375 -1.890625 L 13.96875 -11.234375 L 7.234375 -11.234375 L 3.890625 -2.046875 C 3.804688 -1.835938 3.765625 -1.644531 3.765625 -1.46875 C 3.765625 -1.132812 3.851562 -0.867188 4.03125 -0.671875 C 4.21875 -0.484375 4.414062 -0.390625 4.625 -0.390625 L 4.8125 -0.390625 L 4.8125 0 L 0.53125 0 L 0.53125 -0.390625 L 0.734375 -0.390625 C 1.066406 -0.390625 1.390625 -0.585938 1.703125 -0.984375 C 2.023438 -1.378906 2.289062 -1.847656 2.5 -2.390625 L 11.3125 -25.875 L 19.9375 -2.625 C 20.125 -2.101562 20.375 -1.597656 20.6875 -1.109375 C 21.007812 -0.628906 21.425781 -0.390625 21.9375 -0.390625 L 22.140625 -0.390625 L 22.140625 0 L 16.4375 0 Z M 7.625 -12.546875 L 13.546875 -12.546875 L 10.59375 -20.59375 Z M 7.625 -12.546875 "/></g></g></g><g fill="#ffffff" fill-opacity="1"><g transform="translate(319.937361, 199.050025)"><g><path d="M 1.734375 -0.390625 L 1.921875 -0.390625 C 2.128906 -0.390625 2.304688 -0.457031 2.453125 -0.59375 C 2.609375 -0.738281 2.742188 -0.910156 2.859375 -1.109375 C 2.984375 -1.316406 3.078125 -1.535156 3.140625 -1.765625 C 3.203125 -2.003906 3.234375 -2.222656 3.234375 -2.421875 L 3.234375 -23.015625 C 3.234375 -23.203125 3.203125 -23.410156 3.140625 -23.640625 C 3.078125 -23.867188 2.984375 -24.082031 2.859375 -24.28125 C 2.742188 -24.488281 2.609375 -24.664062 2.453125 -24.8125 C 2.304688 -24.957031 2.128906 -25.03125 1.921875 -25.03125 L 1.734375 -25.03125 L 1.734375 -25.40625 L 7.28125 -25.40625 L 7.28125 -25.03125 L 7.078125 -25.03125 C 6.878906 -25.03125 6.703125 -24.957031 6.546875 -24.8125 C 6.390625 -24.664062 6.257812 -24.488281 6.15625 -24.28125 C 6.050781 -24.082031 5.96875 -23.867188 5.90625 -23.640625 C 5.84375 -23.410156 5.8125 -23.203125 5.8125 -23.015625 L 5.8125 -1.421875 L 14.25 -1.421875 C 14.726562 -1.421875 15.144531 -1.535156 15.5 -1.765625 C 15.863281 -2.003906 16.164062 -2.296875 16.40625 -2.640625 C 16.65625 -2.984375 16.835938 -3.351562 16.953125 -3.75 C 17.066406 -4.144531 17.125 -4.507812 17.125 -4.84375 L 17.515625 -4.84375 L 17.515625 0 L 1.734375 0 Z M 1.734375 -0.390625 "/></g></g></g><g fill="#ffffff" fill-opacity="1"><g transform="translate(118.234434, 237.550336)"><g><path d="M 1.734375 -0.390625 L 1.921875 -0.390625 C 2.097656 -0.390625 2.265625 -0.460938 2.421875 -0.609375 C 2.578125 -0.765625 2.710938 -0.945312 2.828125 -1.15625 C 2.941406 -1.363281 3.023438 -1.585938 3.078125 -1.828125 C 3.128906 -2.066406 3.15625 -2.289062 3.15625 -2.5 L 3.15625 -22.984375 C 3.15625 -23.160156 3.128906 -23.363281 3.078125 -23.59375 C 3.023438 -23.832031 2.941406 -24.054688 2.828125 -24.265625 C 2.710938 -24.484375 2.570312 -24.664062 2.40625 -24.8125 C 2.238281 -24.957031 2.050781 -25.03125 1.84375 -25.03125 L 1.65625 -25.03125 L 1.65625 -25.40625 L 7.96875 -25.40625 C 10.351562 -25.40625 12.21875 -24.878906 13.5625 -23.828125 C 14.914062 -22.773438 15.59375 -21.378906 15.59375 -19.640625 C 15.59375 -18.890625 15.460938 -18.21875 15.203125 -17.625 C 14.953125 -17.039062 14.625 -16.515625 14.21875 -16.046875 C 13.820312 -15.585938 13.394531 -15.195312 12.9375 -14.875 C 12.476562 -14.5625 12.039062 -14.300781 11.625 -14.09375 C 12.707031 -13.882812 13.609375 -13.535156 14.328125 -13.046875 C 15.046875 -12.554688 15.628906 -12 16.078125 -11.375 C 16.523438 -10.75 16.835938 -10.078125 17.015625 -9.359375 C 17.191406 -8.640625 17.28125 -7.929688 17.28125 -7.234375 C 17.28125 -5.898438 17.035156 -4.773438 16.546875 -3.859375 C 16.066406 -2.953125 15.421875 -2.207031 14.609375 -1.625 C 13.796875 -1.050781 12.867188 -0.632812 11.828125 -0.375 C 10.796875 -0.125 9.726562 0 8.625 0 L 1.734375 0 Z M 14.671875 -7 C 14.460938 -8.976562 13.789062 -10.503906 12.65625 -11.578125 C 11.53125 -12.660156 9.941406 -13.203125 7.890625 -13.203125 L 5.734375 -13.203125 L 5.734375 -1.265625 L 7.96875 -1.265625 C 10.050781 -1.265625 11.6875 -1.734375 12.875 -2.671875 C 14.070312 -3.609375 14.671875 -4.910156 14.671875 -6.578125 Z M 13.09375 -19.28125 C 13.007812 -20.769531 12.488281 -21.953125 11.53125 -22.828125 C 10.570312 -23.703125 9.28125 -24.140625 7.65625 -24.140625 L 5.734375 -24.140625 L 5.734375 -14.4375 L 7.734375 -14.4375 C 8.816406 -14.4375 9.695312 -14.578125 10.375 -14.859375 C 11.050781 -15.140625 11.59375 -15.503906 12 -15.953125 C 12.414062 -16.398438 12.703125 -16.894531 12.859375 -17.4375 C 13.015625 -17.976562 13.09375 -18.503906 13.09375 -19.015625 Z M 13.09375 -19.28125 "/></g></g></g><g fill="#ffffff" fill-opacity="1"><g transform="translate(136.291064, 237.550336)"><g><path d="M 16.4375 -0.390625 L 16.625 -0.390625 C 17.25 -0.390625 17.5625 -0.671875 17.5625 -1.234375 C 17.5625 -1.441406 17.519531 -1.660156 17.4375 -1.890625 L 13.96875 -11.234375 L 7.234375 -11.234375 L 3.890625 -2.046875 C 3.804688 -1.835938 3.765625 -1.644531 3.765625 -1.46875 C 3.765625 -1.132812 3.851562 -0.867188 4.03125 -0.671875 C 4.21875 -0.484375 4.414062 -0.390625 4.625 -0.390625 L 4.8125 -0.390625 L 4.8125 0 L 0.53125 0 L 0.53125 -0.390625 L 0.734375 -0.390625 C 1.066406 -0.390625 1.390625 -0.585938 1.703125 -0.984375 C 2.023438 -1.378906 2.289062 -1.847656 2.5 -2.390625 L 11.3125 -25.875 L 19.9375 -2.625 C 20.125 -2.101562 20.375 -1.597656 20.6875 -1.109375 C 21.007812 -0.628906 21.425781 -0.390625 21.9375 -0.390625 L 22.140625 -0.390625 L 22.140625 0 L 16.4375 0 Z M 7.625 -12.546875 L 13.546875 -12.546875 L 10.59375 -20.59375 Z M 7.625 -12.546875 "/></g></g></g><g fill="#ffffff" fill-opacity="1"><g transform="translate(158.236219, 237.550336)"><g><path d="M 5.78125 -0.390625 L 5.96875 -0.390625 L 5.96875 0 L 1.6875 0 L 1.6875 -0.390625 L 1.890625 -0.390625 C 2.066406 -0.390625 2.238281 -0.460938 2.40625 -0.609375 C 2.570312 -0.765625 2.707031 -0.945312 2.8125 -1.15625 C 2.914062 -1.363281 3 -1.585938 3.0625 -1.828125 C 3.125 -2.066406 3.15625 -2.289062 3.15625 -2.5 L 3.15625 -23.015625 C 3.15625 -23.203125 3.132812 -23.410156 3.09375 -23.640625 C 3.0625 -23.867188 2.992188 -24.082031 2.890625 -24.28125 C 2.785156 -24.488281 2.640625 -24.664062 2.453125 -24.8125 C 2.273438 -24.957031 2.0625 -25.03125 1.8125 -25.03125 L 1.609375 -25.03125 L 1.609375 -25.40625 L 5.5 -25.40625 L 19.484375 -3.390625 L 19.484375 -23.015625 C 19.484375 -23.203125 19.445312 -23.410156 19.375 -23.640625 C 19.3125 -23.867188 19.222656 -24.082031 19.109375 -24.28125 C 18.992188 -24.488281 18.859375 -24.664062 18.703125 -24.8125 C 18.554688 -24.957031 18.378906 -25.03125 18.171875 -25.03125 L 17.984375 -25.03125 L 17.984375 -25.40625 L 22.296875 -25.40625 L 22.296875 -25.03125 L 22.09375 -25.03125 C 21.894531 -25.03125 21.71875 -24.957031 21.5625 -24.8125 C 21.40625 -24.664062 21.269531 -24.488281 21.15625 -24.28125 C 21.039062 -24.082031 20.957031 -23.867188 20.90625 -23.640625 C 20.851562 -23.410156 20.828125 -23.203125 20.828125 -23.015625 L 20.828125 0 L 18.4375 0 L 4.5 -22.09375 L 4.5 -2.5 C 4.5 -2.289062 4.523438 -2.066406 4.578125 -1.828125 C 4.628906 -1.585938 4.710938 -1.363281 4.828125 -1.15625 C 4.941406 -0.945312 5.078125 -0.765625 5.234375 -0.609375 C 5.390625 -0.460938 5.570312 -0.390625 5.78125 -0.390625 Z M 5.78125 -0.390625 "/></g></g></g><g fill="#ffffff" fill-opacity="1"><g transform="translate(181.644393, 237.550336)"><g><path d="M 7.046875 -0.390625 L 7.234375 -0.390625 L 7.234375 0 L 1.734375 0 L 1.734375 -0.390625 L 1.921875 -0.390625 C 2.128906 -0.390625 2.304688 -0.460938 2.453125 -0.609375 C 2.609375 -0.765625 2.742188 -0.945312 2.859375 -1.15625 C 2.984375 -1.363281 3.070312 -1.585938 3.125 -1.828125 C 3.175781 -2.066406 3.203125 -2.289062 3.203125 -2.5 L 3.203125 -23.015625 C 3.203125 -23.203125 3.175781 -23.410156 3.125 -23.640625 C 3.070312 -23.867188 2.984375 -24.082031 2.859375 -24.28125 C 2.742188 -24.488281 2.609375 -24.664062 2.453125 -24.8125 C 2.304688 -24.957031 2.144531 -25.03125 1.96875 -25.03125 L 1.765625 -25.03125 L 1.765625 -25.40625 L 7.28125 -25.40625 L 7.28125 -25.03125 L 7.078125 -25.03125 C 6.878906 -25.03125 6.703125 -24.957031 6.546875 -24.8125 C 6.390625 -24.664062 6.253906 -24.488281 6.140625 -24.28125 C 6.023438 -24.082031 5.9375 -23.867188 5.875 -23.640625 C 5.8125 -23.410156 5.78125 -23.203125 5.78125 -23.015625 L 5.78125 -14.09375 L 15.546875 -23.796875 C 15.703125 -23.972656 15.78125 -24.175781 15.78125 -24.40625 C 15.78125 -24.820312 15.628906 -25.03125 15.328125 -25.03125 L 15.125 -25.03125 L 15.125 -25.40625 L 19.828125 -25.40625 L 19.828125 -25.03125 L 19.640625 -25.03125 C 19.273438 -25.03125 18.898438 -24.898438 18.515625 -24.640625 C 18.128906 -24.378906 17.742188 -24.054688 17.359375 -23.671875 L 9.28125 -15.625 L 17.78125 -2.734375 C 17.8125 -2.679688 17.925781 -2.523438 18.125 -2.265625 C 18.332031 -2.015625 18.582031 -1.75 18.875 -1.46875 C 19.175781 -1.1875 19.507812 -0.9375 19.875 -0.71875 C 20.25 -0.5 20.628906 -0.390625 21.015625 -0.390625 L 21.015625 0 L 20.09375 0 C 19.320312 0 18.671875 -0.0390625 18.140625 -0.125 C 17.617188 -0.21875 17.164062 -0.367188 16.78125 -0.578125 C 16.394531 -0.785156 16.054688 -1.039062 15.765625 -1.34375 C 15.472656 -1.65625 15.171875 -2.039062 14.859375 -2.5 L 7.390625 -13.78125 L 5.78125 -12.125 L 5.78125 -2.5 C 5.78125 -2.289062 5.8125 -2.070312 5.875 -1.84375 C 5.9375 -1.613281 6.019531 -1.390625 6.125 -1.171875 C 6.226562 -0.953125 6.351562 -0.765625 6.5 -0.609375 C 6.65625 -0.460938 6.835938 -0.390625 7.046875 -0.390625 Z M 7.046875 -0.390625 "/></g></g></g><path stroke-linecap="round" transform="matrix(0, -0.75, 0.75, 0, 99.76206, 237.974634)" fill="none" stroke-linejoin="miter" d="M 0.997429 0.999545 L 135.809938 0.999545 " stroke="#ffbd59" stroke-width="2" stroke-opacity="1" stroke-miterlimit="4"/><g clip-path="url(#79f0a7bbb9)"><g clip-path="url(#687c4bf19a)"><path fill="url(#8f16e16934)" d="M 4.742188 151.21875 L 4.742188 223.777344 L 80.492188 223.777344 L 80.492188 151.21875 Z M 4.742188 151.21875 " fill-rule="nonzero"/></g></g></svg>