<svg width="2044" height="738" viewBox="0 0 2044 738" fill="none" xmlns="http://www.w3.org/2000/svg">
<path d="M766.841 244.978H767.863C768.821 244.978 769.737 244.601 770.588 243.806C771.44 242.968 772.164 242.005 772.803 240.874C773.42 239.764 773.867 238.57 774.165 237.272C774.442 235.995 774.591 234.801 774.591 233.67V125.116L720.425 249.334L668.984 131.482V233.67C668.984 234.801 669.112 235.995 669.41 237.272C669.687 238.57 670.134 239.764 670.773 240.874C671.39 242.005 672.136 242.968 672.987 243.806C673.839 244.601 674.818 244.978 675.968 244.978H676.99V247.072H654.08V244.978H655.187C656.145 244.978 657.018 244.601 657.828 243.806C658.679 242.968 659.382 242.005 659.957 240.874C660.51 239.764 660.936 238.57 661.234 237.272C661.511 235.995 661.66 234.801 661.66 233.67V123.692C661.66 122.687 661.511 121.577 661.234 120.341C660.936 119.127 660.51 117.975 659.957 116.907C659.382 115.797 658.679 114.855 657.828 114.059C657.018 113.284 656.145 112.886 655.187 112.886H654.08V110.876H675.542L724.172 223.787L772.888 110.876H796.564V112.886H795.542C794.392 112.886 793.413 113.284 792.561 114.059C791.752 114.855 791.05 115.797 790.432 116.907C789.793 117.975 789.346 119.127 789.069 120.341C788.771 121.577 788.644 122.687 788.644 123.692V233.67C788.644 234.801 788.771 235.995 789.069 237.272C789.346 238.57 789.793 239.764 790.432 240.874C791.05 242.005 791.752 242.968 792.561 243.806C793.413 244.601 794.392 244.978 795.542 244.978H796.564V247.072H766.841V244.978Z" fill="white"/>
<path d="M813.62 110.876H843.598V112.886H842.576C841.597 112.886 840.703 113.284 839.851 114.059C838.999 114.855 838.276 115.734 837.722 116.74C837.147 117.745 836.7 118.917 836.359 120.257C836.019 121.556 835.848 122.687 835.848 123.692V233.67C835.848 234.801 835.976 235.995 836.274 237.272C836.551 238.57 836.998 239.764 837.637 240.874C838.254 242.005 838.936 242.968 839.681 243.806C840.469 244.601 841.427 244.978 842.576 244.978H843.598V247.072H813.62V244.978H814.642C815.77 244.978 816.728 244.622 817.537 243.889C818.389 243.115 819.113 242.13 819.752 240.958C820.433 239.785 820.88 238.57 821.114 237.272C821.391 235.995 821.54 234.801 821.54 233.67V123.692C821.54 122.687 821.391 121.577 821.114 120.341C820.88 119.127 820.433 117.975 819.752 116.907C819.113 115.797 818.389 114.855 817.537 114.059C816.728 113.284 815.77 112.886 814.642 112.886H813.62V110.876Z" fill="white"/>
<path d="M881.623 244.978H882.645V247.072H859.31V244.978H860.417C861.375 244.978 862.312 244.601 863.227 243.806C864.121 242.968 864.867 242.005 865.442 240.874C865.995 239.764 866.464 238.57 866.804 237.272C867.145 235.995 867.315 234.801 867.315 233.67V123.692C867.315 122.687 867.187 121.577 866.975 120.341C866.804 119.127 866.421 117.975 865.867 116.907C865.293 115.797 864.505 114.855 863.483 114.059C862.503 113.284 861.354 112.886 859.991 112.886H858.884V110.876H880.09L956.314 228.896V123.692C956.314 122.687 956.101 121.577 955.718 120.341C955.378 119.127 954.888 117.975 954.27 116.907C953.632 115.797 952.908 114.855 952.056 114.059C951.247 113.284 950.289 112.886 949.16 112.886H948.138V110.876H971.644V112.886H970.537C969.451 112.886 968.493 113.284 967.642 114.059C966.79 114.855 966.045 115.797 965.427 116.907C964.788 117.975 964.341 119.127 964.065 120.341C963.766 121.577 963.639 122.687 963.639 123.692V247.072H950.608L874.64 128.634V233.67C874.64 234.801 874.767 235.995 875.065 237.272C875.342 238.57 875.789 239.764 876.428 240.874C877.046 242.005 877.791 242.968 878.642 243.806C879.494 244.601 880.473 244.978 881.623 244.978Z" fill="white"/>
<path d="M988.007 110.876H1017.99V112.886H1016.96C1015.98 112.886 1015.09 113.284 1014.24 114.059C1013.39 114.855 1012.66 115.734 1012.11 116.74C1011.53 117.745 1011.09 118.917 1010.75 120.257C1010.41 121.556 1010.24 122.687 1010.24 123.692V233.67C1010.24 234.801 1010.36 235.995 1010.66 237.272C1010.94 238.57 1011.39 239.764 1012.02 240.874C1012.64 242.005 1013.32 242.968 1014.07 243.806C1014.86 244.601 1015.81 244.978 1016.96 244.978H1017.99V247.072H988.007V244.978H989.029C990.157 244.978 991.115 244.622 991.925 243.889C992.776 243.115 993.5 242.13 994.139 240.958C994.82 239.785 995.267 238.57 995.502 237.272C995.778 235.995 995.927 234.801 995.927 233.67V123.692C995.927 122.687 995.778 121.577 995.502 120.341C995.267 119.127 994.82 117.975 994.139 116.907C993.5 115.797 992.776 114.855 991.925 114.059C991.115 113.284 990.157 112.886 989.029 112.886H988.007V110.876Z" fill="white"/>
<path d="M1107.79 116.237C1097.44 116.237 1088.46 118.059 1080.79 121.681C1073.17 125.325 1066.85 130.058 1061.8 135.921C1056.8 141.784 1053.07 148.38 1050.64 155.689C1048.2 162.955 1046.98 170.158 1046.98 177.299C1046.98 185.466 1048.56 193.423 1051.75 201.171C1054.99 208.94 1059.44 215.808 1065.12 221.776C1070.79 227.765 1077.41 232.582 1084.97 236.267C1092.5 239.911 1100.68 241.712 1109.5 241.712C1111.99 241.712 1114.95 241.439 1118.35 240.874C1121.8 240.329 1125.21 239.262 1128.57 237.691C1131.92 236.141 1135 233.901 1137.86 230.99C1140.75 228.1 1142.97 224.289 1144.5 219.599H1146.63V242.549C1144.52 242.549 1142.31 242.842 1139.98 243.387C1137.71 243.952 1135.15 244.559 1132.32 245.23C1128.68 246.193 1124.65 247.072 1120.23 247.91C1115.84 248.748 1111.22 249.166 1106.34 249.166C1094.19 249.166 1083.48 247.093 1074.24 242.968C1064.97 238.843 1057.29 233.482 1051.16 226.886C1045.02 220.248 1040.38 212.772 1037.27 204.438C1034.21 196.124 1032.67 187.685 1032.67 179.142C1032.67 170.661 1034.21 162.222 1037.27 153.846C1040.38 145.428 1045.07 137.889 1051.33 131.23C1057.63 124.529 1065.51 119.127 1075 114.981C1084.54 110.855 1095.74 108.782 1108.64 108.782C1113.24 108.782 1117.37 109.201 1121.08 110.039C1124.83 110.876 1128.17 111.693 1131.13 112.468C1133.21 113.201 1135.13 113.724 1136.83 114.059C1138.58 114.394 1140.33 114.562 1142.03 114.562V137.512H1139.9C1139.05 133.22 1137.51 129.681 1135.3 126.875C1133.09 124.027 1130.47 121.849 1127.47 120.341C1124.44 118.834 1121.21 117.787 1117.76 117.158C1114.35 116.551 1111.03 116.237 1107.79 116.237Z" fill="white"/>
<path d="M1231.18 108.782C1242.08 108.782 1251.88 110.688 1260.56 114.478C1269.25 118.289 1276.62 123.399 1282.71 129.806C1288.78 136.172 1293.46 143.606 1296.76 152.087C1300.04 160.526 1301.7 169.342 1301.7 178.555C1301.7 188.9 1299.76 198.386 1295.91 207.034C1292.1 215.704 1286.82 223.117 1280.07 229.315C1273.36 235.513 1265.55 240.371 1256.65 243.889C1247.79 247.407 1238.34 249.166 1228.29 249.166C1217.49 249.166 1207.78 247.24 1199.16 243.387C1190.58 239.534 1183.32 234.466 1177.36 228.142C1171.44 221.776 1166.88 214.468 1163.64 206.197C1160.41 197.946 1158.79 189.34 1158.79 180.398C1158.79 171.582 1160.41 162.871 1163.64 154.265C1166.88 145.679 1171.59 138.015 1177.78 131.314C1184.02 124.571 1191.6 119.127 1200.52 114.981C1209.49 110.855 1219.71 108.782 1231.18 108.782ZM1231.01 241.879C1240.38 241.502 1248.58 239.408 1255.62 235.597C1262.71 231.807 1268.61 227.011 1273.34 221.19C1278.11 215.327 1281.64 208.919 1283.98 201.925C1286.31 194.889 1287.48 187.937 1287.48 181.068C1287.48 173.488 1286.05 165.824 1283.22 158.118C1280.43 150.412 1276.45 143.439 1271.3 137.177C1266.12 130.937 1259.93 125.849 1252.73 121.933C1245.51 117.975 1237.42 115.986 1228.46 115.986C1219.77 115.986 1211.98 117.891 1205.12 121.681C1198.31 125.493 1192.47 130.351 1187.66 136.256C1182.83 142.182 1179.14 148.799 1176.59 156.107C1174.08 163.374 1172.84 170.514 1172.84 177.55C1172.84 185.089 1174.31 192.69 1177.27 200.333C1180.21 207.998 1184.28 214.908 1189.45 221.106C1194.6 227.263 1200.71 232.247 1207.76 236.1C1214.85 239.953 1222.6 241.879 1231.01 241.879Z" fill="white"/>
<path d="M1338.05 244.978H1339.07V247.072H1315.74V244.978H1316.85C1317.8 244.978 1318.74 244.601 1319.66 243.806C1320.55 242.968 1321.3 242.005 1321.87 240.874C1322.42 239.764 1322.89 238.57 1323.23 237.272C1323.57 235.995 1323.74 234.801 1323.74 233.67V123.692C1323.74 122.687 1323.62 121.577 1323.4 120.341C1323.23 119.127 1322.85 117.975 1322.3 116.907C1321.72 115.797 1320.93 114.855 1319.91 114.059C1318.93 113.284 1317.78 112.886 1316.42 112.886H1315.31V110.876H1336.52L1412.74 228.896V123.692C1412.74 122.687 1412.53 121.577 1412.15 120.341C1411.81 119.127 1411.32 117.975 1410.7 116.907C1410.06 115.797 1409.34 114.855 1408.48 114.059C1407.68 113.284 1406.72 112.886 1405.59 112.886H1404.57V110.876H1428.07V112.886H1426.97C1425.88 112.886 1424.92 113.284 1424.07 114.059C1423.22 114.855 1422.47 115.797 1421.86 116.907C1421.22 117.975 1420.77 119.127 1420.49 120.341C1420.2 121.577 1420.07 122.687 1420.07 123.692V247.072H1407.04L1331.07 128.634V233.67C1331.07 234.801 1331.2 235.995 1331.49 237.272C1331.77 238.57 1332.22 239.764 1332.86 240.874C1333.47 242.005 1334.22 242.968 1335.07 243.806C1335.92 244.601 1336.9 244.978 1338.05 244.978Z" fill="white"/>
<path d="M1514.27 108.782C1525.17 108.782 1534.97 110.688 1543.65 114.478C1552.34 118.289 1559.71 123.399 1565.8 129.806C1571.87 136.172 1576.55 143.606 1579.85 152.087C1583.13 160.526 1584.79 169.342 1584.79 178.555C1584.79 188.9 1582.85 198.386 1579 207.034C1575.19 215.704 1569.91 223.117 1563.16 229.315C1556.45 235.513 1548.64 240.371 1539.74 243.889C1530.88 247.407 1521.43 249.166 1511.38 249.166C1500.58 249.166 1490.87 247.24 1482.25 243.387C1473.67 239.534 1466.41 234.466 1460.45 228.142C1454.53 221.776 1449.97 214.468 1446.73 206.197C1443.5 197.946 1441.88 189.34 1441.88 180.398C1441.88 171.582 1443.5 162.871 1446.73 154.265C1449.97 145.679 1454.68 138.015 1460.87 131.314C1467.11 124.571 1474.69 119.127 1483.61 114.981C1492.58 110.855 1502.8 108.782 1514.27 108.782ZM1514.1 241.879C1523.47 241.502 1531.67 239.408 1538.71 235.597C1545.8 231.807 1551.7 227.011 1556.43 221.19C1561.2 215.327 1564.73 208.919 1567.08 201.925C1569.4 194.889 1570.57 187.937 1570.57 181.068C1570.57 173.488 1569.14 165.824 1566.31 158.118C1563.52 150.412 1559.54 143.439 1554.39 137.177C1549.21 130.937 1543.02 125.849 1535.82 121.933C1528.6 117.975 1520.51 115.986 1511.55 115.986C1502.86 115.986 1495.07 117.891 1488.21 121.681C1481.4 125.493 1475.56 130.351 1470.75 136.256C1465.92 142.182 1462.24 148.799 1459.68 156.107C1457.17 163.374 1455.93 170.514 1455.93 177.55C1455.93 185.089 1457.4 192.69 1460.36 200.333C1463.3 207.998 1467.37 214.908 1472.54 221.106C1477.69 227.263 1483.8 232.247 1490.85 236.1C1497.94 239.953 1505.69 241.879 1514.1 241.879Z" fill="white"/>
<path d="M1712.02 244.978H1713.04C1714 244.978 1714.91 244.601 1715.76 243.806C1716.61 242.968 1717.34 242.005 1717.98 240.874C1718.59 239.764 1719.04 238.57 1719.34 237.272C1719.62 235.995 1719.77 234.801 1719.77 233.67V125.116L1665.6 249.334L1614.16 131.482V233.67C1614.16 234.801 1614.29 235.995 1614.58 237.272C1614.86 238.57 1615.31 239.764 1615.95 240.874C1616.56 242.005 1617.31 242.968 1618.16 243.806C1619.01 244.601 1619.99 244.978 1621.14 244.978H1622.16V247.072H1599.25V244.978H1600.36C1601.32 244.978 1602.19 244.601 1603 243.806C1603.85 242.968 1604.56 242.005 1605.13 240.874C1605.68 239.764 1606.11 238.57 1606.41 237.272C1606.69 235.995 1606.83 234.801 1606.83 233.67V123.692C1606.83 122.687 1606.69 121.577 1606.41 120.341C1606.11 119.127 1605.68 117.975 1605.13 116.907C1604.56 115.797 1603.85 114.855 1603 114.059C1602.19 113.284 1601.32 112.886 1600.36 112.886H1599.25V110.876H1620.72L1669.35 223.787L1718.06 110.876H1741.74V112.886H1740.72C1739.57 112.886 1738.59 113.284 1737.74 114.059C1736.93 114.855 1736.22 115.797 1735.61 116.907C1734.97 117.975 1734.52 119.127 1734.24 120.341C1733.95 121.577 1733.82 122.687 1733.82 123.692V233.67C1733.82 234.801 1733.95 235.995 1734.24 237.272C1734.52 238.57 1734.97 239.764 1735.61 240.874C1736.22 242.005 1736.93 242.968 1737.74 243.806C1738.59 244.601 1739.57 244.978 1740.72 244.978H1741.74V247.072H1712.02V244.978Z" fill="white"/>
<path d="M1749.08 110.876H1778.04V112.886C1777.06 113.054 1776.17 113.515 1775.32 114.227C1774.51 114.897 1774.12 115.902 1774.12 117.242C1774.12 117.912 1774.32 118.666 1774.72 119.504L1806.23 173.781L1836.38 122.435C1836.93 121.325 1837.34 120.488 1837.57 119.922C1837.79 119.378 1837.91 118.708 1837.91 117.912C1837.62 115.693 1836.81 114.289 1835.44 113.724C1834.12 113.18 1833.34 112.886 1833.06 112.886V110.876H1855.54V112.886C1853.44 112.886 1851.28 114.185 1849.07 116.74C1846.9 119.315 1845.07 121.891 1843.53 124.446L1810.83 180.231V233.67C1810.83 234.801 1811 235.974 1811.34 237.188C1811.68 238.424 1812.13 239.617 1812.7 240.79C1813.26 241.963 1813.94 242.968 1814.75 243.806C1815.6 244.601 1816.58 244.978 1817.73 244.978H1818.75V247.072H1788.77V244.978H1789.79C1790.92 244.978 1791.92 244.622 1792.78 243.889C1793.63 243.115 1794.35 242.13 1794.99 240.958C1795.61 239.785 1796.05 238.57 1796.35 237.272C1796.63 235.995 1796.78 234.801 1796.78 233.67V182.073L1762.97 125.116C1762.29 124.006 1761.43 122.77 1760.41 121.43C1759.43 120.048 1758.39 118.729 1757.26 117.493C1756.18 116.216 1754.98 115.127 1753.68 114.227C1752.43 113.347 1751.26 112.886 1750.19 112.886H1749.08V110.876Z" fill="white"/>
<path d="M727.749 322.627C717.402 322.627 708.417 324.448 700.752 328.071C693.129 331.715 686.806 336.447 681.759 342.311C676.756 348.174 673.03 354.77 670.603 362.078C668.154 369.345 666.94 376.548 666.94 383.689C666.94 391.855 668.516 399.813 671.71 407.561C674.946 415.33 679.396 422.198 685.081 428.166C690.744 434.155 697.366 438.971 704.925 442.657C712.462 446.3 720.638 448.101 729.453 448.101C731.944 448.101 734.903 447.829 738.31 447.264C741.759 446.719 745.166 445.651 748.53 444.081C751.873 442.531 754.96 440.29 757.813 437.38C760.709 434.49 762.923 430.679 764.456 425.988H766.585V448.939C764.477 448.939 762.263 449.232 759.942 449.776C757.664 450.342 755.109 450.949 752.277 451.619C748.636 452.582 744.612 453.462 740.184 454.3C735.798 455.137 731.177 455.556 726.302 455.556C714.144 455.556 703.434 453.483 694.194 449.358C684.932 445.232 677.246 439.872 671.114 433.275C664.982 426.637 660.34 419.162 657.231 410.827C654.165 402.514 652.632 394.075 652.632 385.531C652.632 377.051 654.165 368.612 657.231 360.236C660.34 351.817 665.024 344.279 671.284 337.62C677.586 330.919 685.464 325.516 694.96 321.37C704.499 317.245 715.698 315.172 728.601 315.172C733.2 315.172 737.331 315.591 741.035 316.428C744.783 317.266 748.125 318.083 751.085 318.857C753.172 319.59 755.088 320.114 756.791 320.449C758.537 320.784 760.283 320.951 761.986 320.951V343.902H759.857C759.006 339.609 757.473 336.07 755.258 333.264C753.044 330.416 750.425 328.239 747.423 326.731C744.399 325.223 741.163 324.176 737.714 323.548C734.307 322.941 730.986 322.627 727.749 322.627Z" fill="white"/>
<path d="M851.139 315.172C862.041 315.172 871.835 317.077 880.522 320.868C889.209 324.679 896.576 329.788 902.665 336.196C908.733 342.562 913.417 349.996 916.718 358.477C919.996 366.915 921.657 375.731 921.657 384.945C921.657 395.29 919.72 404.776 915.866 413.424C912.055 422.093 906.774 429.506 900.025 435.705C893.318 441.903 885.504 446.761 876.604 450.279C867.747 453.797 858.293 455.556 848.244 455.556C837.449 455.556 827.74 453.629 819.116 449.776C810.536 445.923 803.275 440.856 797.314 434.532C791.395 428.166 786.838 420.858 783.602 412.586C780.366 404.336 778.747 395.729 778.747 386.788C778.747 377.972 780.366 369.261 783.602 360.654C786.838 352.069 791.544 344.405 797.74 337.704C803.978 330.961 811.558 325.516 820.479 321.37C829.443 317.245 839.663 315.172 851.139 315.172ZM850.969 448.269C860.337 447.892 868.534 445.798 875.582 441.987C882.672 438.196 888.57 433.401 893.297 427.58C898.066 421.716 901.6 415.309 903.943 408.315C906.263 401.279 907.434 394.326 907.434 387.458C907.434 379.878 906.008 372.213 903.176 364.507C900.387 356.801 896.405 349.828 891.253 343.567C886.079 337.327 879.883 332.238 872.686 328.322C865.468 324.365 857.378 322.375 848.414 322.375C839.727 322.375 831.934 324.281 825.078 328.071C818.265 331.882 812.431 336.74 807.619 342.646C802.786 348.572 799.102 355.189 796.547 362.497C794.035 369.763 792.8 376.904 792.8 383.94C792.8 391.479 794.269 399.08 797.229 406.723C800.167 414.387 804.234 421.298 809.407 427.496C814.56 433.652 820.671 438.636 827.718 442.489C834.808 446.342 842.559 448.269 850.969 448.269Z" fill="white"/>
<path d="M1048.88 451.368H1049.9C1050.86 451.368 1051.78 450.991 1052.63 450.195C1053.48 449.358 1054.21 448.394 1054.84 447.264C1055.46 446.154 1055.91 444.96 1056.21 443.662C1056.48 442.384 1056.63 441.191 1056.63 440.06V331.505L1002.47 455.723L951.026 337.871V440.06C951.026 441.191 951.154 442.384 951.452 443.662C951.728 444.96 952.176 446.154 952.814 447.264C953.432 448.394 954.177 449.358 955.029 450.195C955.88 450.991 956.86 451.368 958.009 451.368H959.031V453.462H936.122V451.368H937.229C938.187 451.368 939.06 450.991 939.869 450.195C940.721 449.358 941.423 448.394 941.998 447.264C942.552 446.154 942.978 444.96 943.276 443.662C943.552 442.384 943.701 441.191 943.701 440.06V330.081C943.701 329.076 943.552 327.966 943.276 326.731C942.978 325.516 942.552 324.365 941.998 323.297C941.423 322.187 940.721 321.245 939.869 320.449C939.06 319.674 938.187 319.276 937.229 319.276H936.122V317.266H957.584L1006.21 430.176L1054.93 317.266H1078.61V319.276H1077.58C1076.43 319.276 1075.45 319.674 1074.6 320.449C1073.79 321.245 1073.09 322.187 1072.47 323.297C1071.83 324.365 1071.39 325.516 1071.11 326.731C1070.81 327.966 1070.68 329.076 1070.68 330.081V440.06C1070.68 441.191 1070.81 442.384 1071.11 443.662C1071.39 444.96 1071.83 446.154 1072.47 447.264C1073.09 448.394 1073.79 449.358 1074.6 450.195C1075.45 450.991 1076.43 451.368 1077.58 451.368H1078.61V453.462H1048.88V451.368Z" fill="white"/>
<path d="M1207.74 451.368H1208.76C1209.72 451.368 1210.64 450.991 1211.49 450.195C1212.34 449.358 1213.06 448.394 1213.7 447.264C1214.32 446.154 1214.77 444.96 1215.06 443.662C1215.34 442.384 1215.49 441.191 1215.49 440.06V331.505L1161.32 455.723L1109.88 337.871V440.06C1109.88 441.191 1110.01 442.384 1110.31 443.662C1110.59 444.96 1111.03 446.154 1111.67 447.264C1112.29 448.394 1113.04 449.358 1113.89 450.195C1114.74 450.991 1115.72 451.368 1116.87 451.368H1117.89V453.462H1094.98V451.368H1096.09C1097.05 451.368 1097.92 450.991 1098.73 450.195C1099.58 449.358 1100.28 448.394 1100.86 447.264C1101.41 446.154 1101.84 444.96 1102.13 443.662C1102.41 442.384 1102.56 441.191 1102.56 440.06V330.081C1102.56 329.076 1102.41 327.966 1102.13 326.731C1101.84 325.516 1101.41 324.365 1100.86 323.297C1100.28 322.187 1099.58 321.245 1098.73 320.449C1097.92 319.674 1097.05 319.276 1096.09 319.276H1094.98V317.266H1116.44L1165.07 430.176L1213.79 317.266H1237.46V319.276H1236.44C1235.29 319.276 1234.31 319.674 1233.46 320.449C1232.65 321.245 1231.95 322.187 1231.33 323.297C1230.69 324.365 1230.25 325.516 1229.97 326.731C1229.67 327.966 1229.54 329.076 1229.54 330.081V440.06C1229.54 441.191 1229.67 442.384 1229.97 443.662C1230.25 444.96 1230.69 446.154 1231.33 447.264C1231.95 448.394 1232.65 449.358 1233.46 450.195C1234.31 450.991 1235.29 451.368 1236.44 451.368H1237.46V453.462H1207.74V451.368Z" fill="white"/>
<path d="M1253.67 451.368H1254.69C1255.82 451.368 1256.78 451.012 1257.59 450.279C1258.44 449.504 1259.16 448.583 1259.8 447.515C1260.48 446.405 1260.99 445.232 1261.33 443.997C1261.67 442.719 1261.84 441.547 1261.84 440.479V330.081C1261.84 329.076 1261.67 327.966 1261.33 326.731C1260.99 325.516 1260.48 324.365 1259.8 323.297C1259.16 322.187 1258.44 321.245 1257.59 320.449C1256.78 319.674 1255.82 319.276 1254.69 319.276H1253.67V317.266H1334.49V336.447H1332.36C1332.06 333.264 1330.79 330.479 1328.53 328.071C1326.31 325.684 1322.82 324.469 1318.05 324.469H1275.9V376.653H1310.73C1313.97 376.653 1316.65 375.71 1318.82 373.805C1320.97 371.857 1322.06 369.596 1322.06 367.02H1324.19V392.819H1322.06C1322.06 390.306 1320.99 388.17 1318.91 386.369C1316.8 384.589 1314.07 383.689 1310.73 383.689H1275.9V446.258H1321.89C1324.48 446.258 1326.76 445.651 1328.7 444.416C1330.68 443.138 1332.32 441.652 1333.64 439.976C1335 438.259 1335.98 436.375 1336.62 434.364C1337.24 432.354 1337.56 430.679 1337.56 429.339H1339.69V453.462H1253.67V451.368Z" fill="white"/>
<path d="M1379.78 451.368H1380.8V453.462H1351.25V451.368H1352.27C1353.23 451.368 1354.14 450.991 1355 450.195C1355.85 449.358 1356.57 448.394 1357.21 447.264C1357.83 446.154 1358.28 444.96 1358.57 443.662C1358.85 442.384 1359 441.191 1359 440.06V330.081C1359 329.076 1358.85 327.966 1358.57 326.731C1358.28 325.516 1357.83 324.365 1357.21 323.297C1356.57 322.187 1355.85 321.245 1355 320.449C1354.14 319.674 1353.23 319.276 1352.27 319.276H1351.25V317.266H1387.79C1401.75 317.266 1412.53 319.946 1420.15 325.307C1427.81 330.668 1431.65 338.583 1431.65 349.011C1431.65 354.267 1430.75 358.853 1429.01 362.748C1427.24 366.664 1424.88 370.036 1421.94 372.883C1419.04 375.689 1415.57 377.951 1411.55 379.668C1407.57 381.406 1403.33 382.684 1398.86 383.521L1414.02 406.22C1417.64 411.707 1421.34 417.089 1425.09 422.386C1428.88 427.705 1432.6 433.171 1436.25 438.804C1437.2 440.207 1438.29 441.652 1439.48 443.159C1440.67 444.667 1441.91 446.049 1443.23 447.264C1444.59 448.499 1445.98 449.504 1447.4 450.279C1448.87 451.012 1450.4 451.368 1452 451.368V453.462H1442.97C1437.35 453.462 1432.75 452.122 1429.18 449.441C1425.6 446.761 1422.64 443.641 1420.32 440.06C1414.02 430.972 1407.74 421.758 1401.5 412.419C1395.24 403.038 1389.06 393.803 1382.93 384.694C1381.4 384.589 1379.74 384.443 1377.99 384.275C1376.22 384.066 1374.58 383.814 1373.05 383.521V440.06C1373.05 441.191 1373.18 442.384 1373.48 443.662C1373.75 444.96 1374.2 446.154 1374.84 447.264C1375.46 448.394 1376.14 449.358 1376.88 450.195C1377.67 450.991 1378.63 451.368 1379.78 451.368ZM1373.05 324.302V376.653H1374.07C1375.2 376.82 1376.99 376.946 1379.44 376.988C1381.87 377.051 1384.91 377.071 1388.55 377.071C1391.49 377.071 1394.62 376.632 1397.92 375.731C1401.2 374.852 1404.27 373.344 1407.12 371.208C1410.01 369.093 1412.4 366.329 1414.27 362.916C1416.19 359.461 1417.17 355.105 1417.17 349.849C1417.17 344.614 1416.15 340.342 1414.1 337.034C1412.06 333.746 1409.25 331.149 1405.67 329.244C1402.09 327.296 1397.77 325.977 1392.72 325.307C1387.72 324.637 1382.21 324.302 1376.2 324.302H1373.05Z" fill="white"/>
<path d="M1461.22 317.266H1491.2V319.276H1490.18C1489.2 319.276 1488.31 319.674 1487.45 320.449C1486.6 321.245 1485.88 322.124 1485.33 323.129C1484.75 324.134 1484.3 325.307 1483.96 326.647C1483.62 327.945 1483.45 329.076 1483.45 330.081V440.06C1483.45 441.191 1483.58 442.384 1483.88 443.662C1484.15 444.96 1484.6 446.154 1485.24 447.264C1485.86 448.394 1486.54 449.358 1487.28 450.195C1488.07 450.991 1489.03 451.368 1490.18 451.368H1491.2V453.462H1461.22V451.368H1462.25C1463.37 451.368 1464.33 451.012 1465.14 450.279C1465.99 449.504 1466.72 448.52 1467.36 447.347C1468.04 446.175 1468.48 444.96 1468.72 443.662C1468.99 442.384 1469.14 441.191 1469.14 440.06V330.081C1469.14 329.076 1468.99 327.966 1468.72 326.731C1468.48 325.516 1468.04 324.365 1467.36 323.297C1466.72 322.187 1465.99 321.245 1465.14 320.449C1464.33 319.674 1463.37 319.276 1462.25 319.276H1461.22V317.266Z" fill="white"/>
<path d="M1581.01 322.627C1570.66 322.627 1561.68 324.448 1554.01 328.071C1546.39 331.715 1540.06 336.447 1535.02 342.311C1530.01 348.174 1526.29 354.77 1523.86 362.078C1521.41 369.345 1520.2 376.548 1520.2 383.689C1520.2 391.855 1521.78 399.813 1524.97 407.561C1528.21 415.33 1532.66 422.198 1538.34 428.166C1544 434.155 1550.63 438.971 1558.18 442.657C1565.72 446.3 1573.9 448.101 1582.71 448.101C1585.2 448.101 1588.16 447.829 1591.57 447.264C1595.02 446.719 1598.43 445.651 1601.79 444.081C1605.13 442.531 1608.22 440.29 1611.07 437.38C1613.97 434.49 1616.18 430.679 1617.72 425.988H1619.84V448.939C1617.74 448.939 1615.52 449.232 1613.2 449.776C1610.92 450.342 1608.37 450.949 1605.54 451.619C1601.9 452.582 1597.87 453.462 1593.44 454.3C1589.06 455.137 1584.44 455.556 1579.56 455.556C1567.4 455.556 1556.69 453.483 1547.45 449.358C1538.19 445.232 1530.5 439.872 1524.37 433.275C1518.24 426.637 1513.6 419.162 1510.49 410.827C1507.42 402.514 1505.89 394.075 1505.89 385.531C1505.89 377.051 1507.42 368.612 1510.49 360.236C1513.6 351.817 1518.28 344.279 1524.54 337.62C1530.85 330.919 1538.72 325.516 1548.22 321.37C1557.76 317.245 1568.96 315.172 1581.86 315.172C1586.46 315.172 1590.59 315.591 1594.29 316.428C1598.04 317.266 1601.38 318.083 1604.34 318.857C1606.43 319.59 1608.35 320.114 1610.05 320.449C1611.8 320.784 1613.54 320.951 1615.25 320.951V343.902H1613.12C1612.26 339.609 1610.73 336.07 1608.52 333.264C1606.3 330.416 1603.68 328.239 1600.68 326.731C1597.66 325.223 1594.42 324.176 1590.97 323.548C1587.57 322.941 1584.24 322.627 1581.01 322.627Z" fill="white"/>
<path d="M1713.85 451.368H1714.87C1718.28 451.368 1719.98 449.86 1719.98 446.845C1719.98 445.735 1719.75 444.562 1719.3 443.327L1700.4 393.238H1663.69L1645.46 442.489C1644.99 443.62 1644.78 444.646 1644.78 445.588C1644.78 447.389 1645.25 448.813 1646.23 449.86C1647.25 450.865 1648.32 451.368 1649.47 451.368H1650.49V453.462H1627.15V451.368H1628.26C1630.07 451.368 1631.84 450.321 1633.54 448.185C1635.29 446.07 1636.73 443.557 1637.88 440.647L1685.92 314.753L1732.93 439.39C1733.95 442.196 1735.31 444.897 1737.02 447.515C1738.76 450.091 1741.04 451.368 1743.83 451.368H1744.94V453.462H1713.85V451.368ZM1665.82 386.202H1698.1L1682 343.065L1665.82 386.202Z" fill="white"/>
<path d="M1753.33 451.368H1754.35C1755.48 451.368 1756.43 451.012 1757.24 450.279C1758.09 449.504 1758.82 448.583 1759.46 447.515C1760.14 446.405 1760.65 445.232 1760.99 443.997C1761.33 442.719 1761.5 441.547 1761.5 440.479V330.081C1761.5 329.076 1761.33 327.966 1760.99 326.731C1760.65 325.516 1760.14 324.365 1759.46 323.297C1758.82 322.187 1758.09 321.245 1757.24 320.449C1756.43 319.674 1755.48 319.276 1754.35 319.276H1753.33V317.266H1783.56V319.276H1782.45C1781.37 319.276 1780.41 319.674 1779.56 320.449C1778.7 321.245 1777.98 322.187 1777.43 323.297C1776.85 324.365 1776.41 325.516 1776.06 326.731C1775.72 327.966 1775.55 329.076 1775.55 330.081V445.84H1821.54C1824.14 445.84 1826.42 445.232 1828.36 443.997C1830.34 442.719 1831.98 441.149 1833.3 439.306C1834.66 437.463 1835.64 435.495 1836.28 433.359C1836.9 431.244 1837.21 429.297 1837.21 427.496H1839.34V453.462H1753.33V451.368Z" fill="white"/>
<path d="M653.91 657.758H654.932C655.89 657.758 656.806 657.381 657.657 656.585C658.509 655.747 659.233 654.784 659.872 653.653C660.489 652.544 660.936 651.35 661.234 650.052C661.511 648.774 661.66 647.581 661.66 646.45V536.639C661.66 535.696 661.511 534.608 661.234 533.372C660.936 532.095 660.489 530.901 659.872 529.77C659.233 528.598 658.466 527.634 657.572 526.839C656.657 526.064 655.635 525.666 654.506 525.666H653.484V523.656H687.892C700.879 523.656 711.057 526.483 718.381 532.116C725.748 537.77 729.453 545.245 729.453 554.564C729.453 558.584 728.729 562.186 727.324 565.369C725.961 568.51 724.173 571.316 721.958 573.829C719.786 576.3 717.466 578.394 714.975 580.111C712.462 581.786 710.077 583.189 707.821 584.299C713.718 585.43 718.637 587.293 722.554 589.911C726.472 592.549 729.644 595.523 732.093 598.873C734.52 602.224 736.224 605.826 737.203 609.679C738.161 613.532 738.651 617.343 738.651 621.07C738.651 628.232 737.309 634.263 734.648 639.163C732.029 644.021 728.516 648.02 724.087 651.141C719.659 654.219 714.591 656.459 708.928 657.842C703.307 659.182 697.473 659.852 691.469 659.852H653.91V657.758ZM724.428 622.327C723.278 611.731 719.616 603.543 713.442 597.785C707.31 591.984 698.644 589.073 687.466 589.073H675.713V653.067H687.892C699.24 653.067 708.161 650.554 714.634 645.529C721.149 640.503 724.428 633.53 724.428 624.588V622.327ZM715.826 556.49C715.358 548.512 712.526 542.167 707.31 537.476C702.072 532.786 695.046 530.44 686.188 530.44H675.713V582.456H686.614C692.512 582.456 697.302 581.702 701.007 580.195C704.691 578.687 707.65 576.74 709.865 574.331C712.121 571.944 713.697 569.285 714.549 566.374C715.4 563.484 715.826 560.657 715.826 557.914V556.49Z" fill="white"/>
<path d="M832.472 657.758H833.494C836.901 657.758 838.604 656.25 838.604 653.235C838.604 652.125 838.37 650.952 837.923 649.717L819.016 599.627H782.309L764.084 648.879C763.615 650.01 763.402 651.036 763.402 651.978C763.402 653.779 763.871 655.203 764.85 656.25C765.872 657.255 766.937 657.758 768.086 657.758H769.108V659.852H745.773V657.758H746.88C748.69 657.758 750.457 656.711 752.16 654.575C753.906 652.46 755.354 649.947 756.504 647.036L804.538 521.143L851.55 645.78C852.572 648.586 853.934 651.287 855.638 653.905C857.384 656.481 859.662 657.758 862.451 657.758H863.558V659.852H832.472V657.758ZM784.438 592.592H816.717L800.62 549.454L784.438 592.592Z" fill="white"/>
<path d="M894.005 657.758H895.027V659.852H871.691V657.758H872.798C873.756 657.758 874.693 657.381 875.609 656.585C876.503 655.747 877.248 654.784 877.823 653.653C878.377 652.544 878.845 651.35 879.186 650.052C879.526 648.774 879.697 647.581 879.697 646.45V536.471C879.697 535.466 879.569 534.356 879.356 533.121C879.186 531.906 878.802 530.755 878.249 529.687C877.674 528.577 876.886 527.634 875.864 526.839C874.885 526.064 873.735 525.666 872.372 525.666H871.265V523.656H892.472L968.696 641.676V536.471C968.696 535.466 968.483 534.356 968.1 533.121C967.759 531.906 967.269 530.755 966.652 529.687C966.013 528.577 965.289 527.634 964.437 526.839C963.628 526.064 962.67 525.666 961.542 525.666H960.52V523.656H984.026V525.666H982.919C981.833 525.666 980.875 526.064 980.023 526.839C979.171 527.634 978.426 528.577 977.809 529.687C977.17 530.755 976.723 531.906 976.446 533.121C976.148 534.356 976.02 535.466 976.02 536.471V659.852H962.99L887.021 541.413V646.45C887.021 647.581 887.149 648.774 887.447 650.052C887.724 651.35 888.171 652.544 888.809 653.653C889.427 654.784 890.172 655.747 891.024 656.585C891.875 657.381 892.855 657.758 894.005 657.758Z" fill="white"/>
<path d="M1028.49 657.758H1029.51V659.852H999.536V657.758H1000.56C1001.69 657.758 1002.64 657.381 1003.45 656.585C1004.31 655.747 1005.03 654.784 1005.67 653.653C1006.35 652.544 1006.82 651.35 1007.12 650.052C1007.39 648.774 1007.54 647.581 1007.54 646.45V536.471C1007.54 535.466 1007.39 534.356 1007.12 533.121C1006.82 531.906 1006.35 530.755 1005.67 529.687C1005.03 528.577 1004.31 527.634 1003.45 526.839C1002.64 526.064 1001.77 525.666 1000.81 525.666H999.707V523.656H1029.77V525.666H1028.66C1027.58 525.666 1026.62 526.064 1025.77 526.839C1024.92 527.634 1024.17 528.577 1023.55 529.687C1022.91 530.755 1022.45 531.906 1022.11 533.121C1021.76 534.356 1021.59 535.466 1021.59 536.471V584.299L1074.82 532.283C1075.68 531.341 1076.1 530.252 1076.1 529.016C1076.1 526.797 1075.27 525.666 1073.63 525.666H1072.52V523.656H1098.16V525.666H1097.14C1095.14 525.666 1093.09 526.378 1091.01 527.76C1088.9 529.163 1086.79 530.901 1084.7 532.953L1040.67 576.09L1087 645.194C1087.17 645.487 1087.79 646.324 1088.88 647.706C1090 649.047 1091.37 650.471 1092.96 651.978C1094.6 653.486 1096.41 654.826 1098.41 655.999C1100.46 657.171 1102.52 657.758 1104.63 657.758V659.852H1099.61C1095.39 659.852 1091.86 659.642 1088.96 659.182C1086.11 658.679 1083.64 657.883 1081.55 656.753C1079.44 655.643 1077.59 654.282 1076.02 652.648C1074.42 650.973 1072.78 648.921 1071.08 646.45L1030.37 585.974L1021.59 594.853V646.45C1021.59 647.581 1021.76 648.753 1022.11 649.968C1022.45 651.203 1022.89 652.397 1023.47 653.57C1024.02 654.742 1024.7 655.747 1025.51 656.585C1026.36 657.381 1027.34 657.758 1028.49 657.758Z" fill="white"/>
<path d="M547.856 658.116V116.096" stroke="#FFBD59" stroke-width="2" stroke-linecap="round"/>
<mask id="mask0_140_120" style="mask-type:luminance" maskUnits="userSpaceOnUse" x="25" y="201" width="414" height="386">
<path d="M25.848 201.24H438.736V586.689H25.848V201.24Z" fill="white"/>
</mask>
<g mask="url(#mask0_140_120)">
<mask id="mask1_140_120" style="mask-type:luminance" maskUnits="userSpaceOnUse" x="25" y="203" width="415" height="383">
<path d="M164.265 515.199C140.057 512.498 118.041 503.975 99.7301 489.966L100.113 489.526C109.418 491.076 118.914 491.809 128.453 491.809C145.103 491.809 161.987 489.526 178.637 485.149C192.179 481.59 205.55 476.648 218.559 470.387C247.558 456.44 274.62 436.065 297.104 410.225C323.718 379.631 335.195 351.383 332.214 323.825C331.767 319.763 331 315.742 329.914 311.701C370.347 352.765 381.419 388.007 334.641 441.803C301.873 479.412 258.609 504.792 212.768 513.189C212.746 513.189 212.704 513.189 212.682 513.21C205.507 514.529 198.46 515.387 191.497 515.806C182.171 516.392 173.08 516.183 164.265 515.199ZM190.837 459.644C224.116 447.478 255.734 425.888 281.093 396.718C302.725 371.904 311.795 351.131 311.795 332.243C311.795 312.371 301.703 294.592 285.606 276.374L269.787 294.55H269.765V294.571L269.744 294.613L211.724 361.266L204.655 369.391L151.086 430.956L116.529 470.659H116.551C140.993 472.543 166.352 468.648 190.837 459.644ZM439.268 238.744L411.717 256.481C410.674 259.957 409.119 263.37 407.011 266.7C393.534 287.996 362.746 296.309 338.261 285.253C313.754 274.196 304.854 247.958 318.353 226.662C331.852 205.366 362.64 197.052 387.125 208.13C397.473 212.799 405.031 220.17 409.311 228.756V228.777L439.268 238.744ZM365.408 225.866C360.51 221.72 353.101 222.264 348.928 227.123C344.712 231.939 345.287 239.205 350.205 243.351C355.102 247.477 362.512 246.911 366.706 242.074C370.901 237.258 370.326 229.97 365.408 225.866ZM25.848 574.837C38.3462 582.48 52.931 586.019 67.8565 584.888C86.3802 583.443 103.201 575.046 115.252 561.205L140.653 532.014C120.575 527.009 102.093 518.193 86.0183 505.692L25.848 574.837ZM228.012 564.534L218.644 533.166C217.963 533.312 217.281 533.438 216.621 533.564C210.213 534.736 203.846 535.616 197.565 536.16L206.039 564.534H159.006V585.265H376.862V564.534H228.012Z" fill="white"/>
</mask>
<g mask="url(#mask1_140_120)">
<path d="M25.848 197.052V586.019H438.736V197.052H25.848Z" fill="url(#paint0_linear_140_120)"/>
</g>
</g>
<defs>
<linearGradient id="paint0_linear_140_120" x1="25.8551" y1="394.24" x2="438.743" y2="394.24" gradientUnits="userSpaceOnUse">
<stop stop-color="#E7D49E"/>
<stop offset="0.0078125" stop-color="#E7D49E"/>
<stop offset="0.015625" stop-color="#E7D49D"/>
<stop offset="0.0234375" stop-color="#E7D39D"/>
<stop offset="0.03125" stop-color="#E8D39C"/>
<stop offset="0.0390625" stop-color="#E8D39C"/>
<stop offset="0.046875" stop-color="#E8D39B"/>
<stop offset="0.0546875" stop-color="#E8D39B"/>
<stop offset="0.0625" stop-color="#E8D39A"/>
<stop offset="0.0703125" stop-color="#E9D29A"/>
<stop offset="0.078125" stop-color="#E9D299"/>
<stop offset="0.0859375" stop-color="#E9D298"/>
<stop offset="0.09375" stop-color="#E9D298"/>
<stop offset="0.101563" stop-color="#E9D297"/>
<stop offset="0.109375" stop-color="#EAD197"/>
<stop offset="0.117188" stop-color="#EAD196"/>
<stop offset="0.125" stop-color="#EAD196"/>
<stop offset="0.132812" stop-color="#EAD195"/>
<stop offset="0.140625" stop-color="#EAD195"/>
<stop offset="0.148438" stop-color="#EAD194"/>
<stop offset="0.15625" stop-color="#EBD094"/>
<stop offset="0.164063" stop-color="#EBD093"/>
<stop offset="0.171875" stop-color="#EBD093"/>
<stop offset="0.179688" stop-color="#EBD092"/>
<stop offset="0.1875" stop-color="#EBD091"/>
<stop offset="0.195313" stop-color="#ECD091"/>
<stop offset="0.203125" stop-color="#ECCF90"/>
<stop offset="0.210938" stop-color="#ECCF90"/>
<stop offset="0.21875" stop-color="#ECCF8F"/>
<stop offset="0.226562" stop-color="#ECCF8F"/>
<stop offset="0.234375" stop-color="#EDCF8E"/>
<stop offset="0.242188" stop-color="#EDCE8E"/>
<stop offset="0.25" stop-color="#EDCE8D"/>
<stop offset="0.257813" stop-color="#EDCE8D"/>
<stop offset="0.265625" stop-color="#EDCE8C"/>
<stop offset="0.273438" stop-color="#EDCE8B"/>
<stop offset="0.28125" stop-color="#EECE8B"/>
<stop offset="0.289062" stop-color="#EECD8A"/>
<stop offset="0.296875" stop-color="#EECD8A"/>
<stop offset="0.304688" stop-color="#EECD89"/>
<stop offset="0.3125" stop-color="#EECD89"/>
<stop offset="0.320312" stop-color="#EFCD88"/>
<stop offset="0.328125" stop-color="#EFCC88"/>
<stop offset="0.335938" stop-color="#EFCC87"/>
<stop offset="0.34375" stop-color="#EFCC87"/>
<stop offset="0.351562" stop-color="#EFCC86"/>
<stop offset="0.359375" stop-color="#F0CC86"/>
<stop offset="0.367188" stop-color="#F0CC85"/>
<stop offset="0.375" stop-color="#F0CB84"/>
<stop offset="0.382812" stop-color="#F0CB84"/>
<stop offset="0.390625" stop-color="#F0CB83"/>
<stop offset="0.398438" stop-color="#F0CB83"/>
<stop offset="0.40625" stop-color="#F1CB82"/>
<stop offset="0.414062" stop-color="#F1CB82"/>
<stop offset="0.421875" stop-color="#F1CA81"/>
<stop offset="0.429688" stop-color="#F1CA81"/>
<stop offset="0.4375" stop-color="#F1CA80"/>
<stop offset="0.445313" stop-color="#F2CA80"/>
<stop offset="0.453125" stop-color="#F2CA7F"/>
<stop offset="0.460938" stop-color="#F2C97F"/>
<stop offset="0.46875" stop-color="#F2C97E"/>
<stop offset="0.476562" stop-color="#F2C97D"/>
<stop offset="0.484375" stop-color="#F3C97D"/>
<stop offset="0.492188" stop-color="#F3C97C"/>
<stop offset="0.5" stop-color="#F3C97C"/>
<stop offset="0.507812" stop-color="#F3C87B"/>
<stop offset="0.515625" stop-color="#F3C87B"/>
<stop offset="0.523438" stop-color="#F3C87A"/>
<stop offset="0.53125" stop-color="#F4C87A"/>
<stop offset="0.539062" stop-color="#F4C879"/>
<stop offset="0.546875" stop-color="#F4C779"/>
<stop offset="0.554688" stop-color="#F4C778"/>
<stop offset="0.5625" stop-color="#F4C778"/>
<stop offset="0.570312" stop-color="#F5C777"/>
<stop offset="0.578125" stop-color="#F5C776"/>
<stop offset="0.585938" stop-color="#F5C776"/>
<stop offset="0.59375" stop-color="#F5C675"/>
<stop offset="0.601562" stop-color="#F5C675"/>
<stop offset="0.609375" stop-color="#F6C674"/>
<stop offset="0.617188" stop-color="#F6C674"/>
<stop offset="0.625" stop-color="#F6C673"/>
<stop offset="0.632812" stop-color="#F6C573"/>
<stop offset="0.640625" stop-color="#F6C572"/>
<stop offset="0.648438" stop-color="#F6C572"/>
<stop offset="0.65625" stop-color="#F7C571"/>
<stop offset="0.664062" stop-color="#F7C571"/>
<stop offset="0.671875" stop-color="#F7C570"/>
<stop offset="0.679687" stop-color="#F7C46F"/>
<stop offset="0.6875" stop-color="#F7C46F"/>
<stop offset="0.695312" stop-color="#F8C46E"/>
<stop offset="0.703125" stop-color="#F8C46E"/>
<stop offset="0.710938" stop-color="#F8C46D"/>
<stop offset="0.71875" stop-color="#F8C46D"/>
<stop offset="0.726562" stop-color="#F8C36C"/>
<stop offset="0.734375" stop-color="#F9C36C"/>
<stop offset="0.742188" stop-color="#F9C36B"/>
<stop offset="0.75" stop-color="#F9C36B"/>
<stop offset="0.757812" stop-color="#F9C36A"/>
<stop offset="0.765625" stop-color="#F9C26A"/>
<stop offset="0.773438" stop-color="#F9C269"/>
<stop offset="0.78125" stop-color="#FAC268"/>
<stop offset="0.789062" stop-color="#FAC268"/>
<stop offset="0.796875" stop-color="#FAC267"/>
<stop offset="0.804688" stop-color="#FAC267"/>
<stop offset="0.8125" stop-color="#FAC166"/>
<stop offset="0.820312" stop-color="#FBC166"/>
<stop offset="0.828125" stop-color="#FBC165"/>
<stop offset="0.835938" stop-color="#FBC165"/>
<stop offset="0.84375" stop-color="#FBC164"/>
<stop offset="0.851562" stop-color="#FBC064"/>
<stop offset="0.859375" stop-color="#FCC063"/>
<stop offset="0.867188" stop-color="#FCC063"/>
<stop offset="0.875" stop-color="#FCC062"/>
<stop offset="0.882812" stop-color="#FCC061"/>
<stop offset="0.890625" stop-color="#FCC061"/>
<stop offset="0.898438" stop-color="#FCBF60"/>
<stop offset="0.90625" stop-color="#FDBF60"/>
<stop offset="0.914062" stop-color="#FDBF5F"/>
<stop offset="0.921875" stop-color="#FDBF5F"/>
<stop offset="0.929688" stop-color="#FDBF5E"/>
<stop offset="0.9375" stop-color="#FDBF5E"/>
<stop offset="0.945312" stop-color="#FEBE5D"/>
<stop offset="0.953125" stop-color="#FEBE5D"/>
<stop offset="0.960938" stop-color="#FEBE5C"/>
<stop offset="0.96875" stop-color="#FEBE5C"/>
<stop offset="0.976562" stop-color="#FEBE5B"/>
<stop offset="0.984375" stop-color="#FFBD5A"/>
<stop offset="0.992188" stop-color="#FFBD5A"/>
<stop offset="1" stop-color="#FFBD59"/>
</linearGradient>
</defs>
</svg>
